<svg xmlns="http://www.w3.org/2000/svg" width="344" height="344" fill="none" viewBox="0 0 344 344"><g clip-path="url(#a)" filter="url(#b)"><g filter="url(#c)"><path fill="#EBEBEB" d="M306.333 267.785h-22.257v.168h22.257v-.168ZM226.58 269.613h-5.84v.168h5.84v-.168ZM283.404 261.549h-12.895v.168h12.895v-.168ZM68.2769 262.678H39.2532v.168h29.0237v-.168ZM78.518 262.678h-4.2537v.168h4.2537v-.168ZM155.301 265.514H92.3479v.168h62.9531v-.168ZM340 256.973H4v.168h336v-.168Z"/><path fill="#F0F0F0" d="M240.228 155.924h50.42v-50.42h-50.42v50.42Z"/><path fill="#FAFAFA" d="M248.185 151.059h34.507c1.707 0 3.091-1.384 3.091-3.091v-34.507c0-1.708-1.384-3.092-3.091-3.092h-34.507c-1.708 0-3.092 1.384-3.092 3.092v34.507c0 1.707 1.384 3.091 3.092 3.091Z"/><path fill="#E0E0E0" d="M273.842 110.369c-.148.687-.525 1.302-1.07 1.745-.545.442-1.225.685-1.927.688h-10.813c-.701-.003-1.38-.246-1.924-.689-.544-.442-.921-1.058-1.066-1.744h16.8Z"/><path fill="#F5F5F5" d="M240.228 206.351h50.42v-50.42h-50.42v50.42Z"/><path fill="#EBEBEB" d="M248.185 201.486h34.507c1.707 0 3.091-1.384 3.091-3.091v-34.508c0-1.707-1.384-3.091-3.091-3.091h-34.507c-1.708 0-3.092 1.384-3.092 3.091v34.508c0 1.707 1.384 3.091 3.092 3.091Z"/><path fill="#E0E0E0" d="M273.842 160.789c-.148.687-.525 1.303-1.07 1.745-.545.442-1.225.685-1.927.688h-10.813c-.701-.003-1.38-.246-1.924-.689-.544-.442-.921-1.058-1.066-1.744h16.8Z"/><path fill="#F0F0F0" d="M240.228 256.764h50.42v-50.42h-50.42v50.42Z"/><path fill="#FAFAFA" d="M248.185 251.899h34.507c1.707 0 3.091-1.384 3.091-3.091v-34.507c0-1.707-1.384-3.091-3.091-3.091h-34.507c-1.708 0-3.092 1.384-3.092 3.091v34.507c0 1.707 1.384 3.091 3.092 3.091Z"/><path fill="#E0E0E0" d="M273.842 211.216c-.149.686-.527 1.3-1.072 1.741-.545.441-1.224.683-1.925.685h-10.813c-.701-.001-1.38-.243-1.924-.684-.544-.442-.92-1.056-1.066-1.742h16.8Z"/><path fill="#E6E6E6" d="M234.059 256.771h6.176V105.679h-6.176v151.092Z"/><path fill="#F5F5F5" d="M102.112 139.897c19.982 0 36.18-16.199 36.18-36.181 0-19.9814-16.198-36.18-36.18-36.18-19.9819 0-36.1805 16.1986-36.1805 36.18 0 19.982 16.1986 36.181 36.1805 36.181Z"/><path fill="#FAFAFA" d="M102.112 134.4c16.946 0 30.684-13.737 30.684-30.684 0-16.9456-13.738-30.683-30.684-30.683-16.9461 0-30.6835 13.7374-30.6835 30.683 0 16.947 13.7374 30.684 30.6835 30.684Z"/><path fill="#E6E6E6" d="M102.112 73.033c-.484 0-.961 0-1.438.0403 7.868.3865 15.285 3.784 20.717 9.489 5.431 5.705 8.461 13.2804 8.461 21.1577 0 7.877-3.03 15.452-8.461 21.157-5.432 5.705-12.849 9.103-20.717 9.489.477 0 .954.034 1.438.034 8.138 0 15.942-3.233 21.697-8.987 5.754-5.754 8.987-13.559 8.987-21.697 0-8.1373-3.233-15.9418-8.987-21.696-5.755-5.7543-13.559-8.987-21.697-8.987Z"/><path fill="#F0F0F0" d="M102.112 134.4c.779 0 1.546-.108 2.305-.202v-28.177h26.846c.054-.759.094-1.525.094-2.305 0-.779-.04-1.538-.094-2.304h-26.846V73.248c-.759-.0941-1.526-.168-2.305-.2016h-2.305v28.3386H71.462v4.61h28.345V134.4h2.305Z"/><path fill="#E6E6E6" d="M99.807 73.0733h-2.3049v28.3447h2.3049V73.0733ZM99.807 106.021h-2.3049v28.345h2.3049v-28.345ZM59.4064 248.082H183.814v-66.951H59.4064v66.951ZM173.835 256.764h7.822v-5.906h-7.822v5.906ZM49.9044 256.764h7.822v-80.619h-7.822v80.619Z"/><g filter="url(#d)"><path fill="#F0F0F0" d="M57.6323 176.151v80.64h4.1597v-4.515h119.865v4.515h4.173v-80.64H57.6323Zm4.1597 7.305h57.839v27.996H61.792v-27.996Zm119.851 61.508h-57.825v-61.508h57.839l-.014 61.508Zm-119.851-.007v-29.339h57.839v29.339H61.792Z"/></g><g filter="url(#e)"><path fill="#F5F5F5" d="M123.811 244.951h53.935v-58.498h-53.935v58.498Z"/></g><path fill="#FAFAFA" d="M126.257 213.951c0 .496.147.981.422 1.393.276.412.667.733 1.125.923.458.19.962.24 1.449.143.486-.097.932-.336 1.283-.686.35-.351.589-.797.686-1.284.097-.486.047-.99-.143-1.448-.189-.458-.511-.849-.923-1.125-.412-.275-.897-.422-1.392-.422-.665 0-1.303.264-1.773.734s-.734 1.108-.734 1.772Z"/><path fill="#E0E0E0" d="M128.764 216.458c.479.001.949-.137 1.352-.397.403-.26.722-.631.919-1.068.178.382.257.803.23 1.223-.028.421-.161.828-.387 1.183-.227.356-.539.649-.909.852-.369.202-.784.309-1.205.309-.422 0-.837-.107-1.206-.309-.37-.203-.682-.496-.909-.852-.226-.355-.359-.762-.387-1.183-.027-.42.052-.841.23-1.223.198.437.517.807.92 1.067.403.26.872.398 1.352.398Z"/><path fill="#FAFAFA" d="M156.833 244.957h-12.869l-6.149-58.497h12.869l6.149 58.497ZM140.671 244.957h-2.56l-6.149-58.497h2.561l6.148 58.497ZM106.608 211.418h5.093v-25.019h-5.093v25.019Z"/><path fill="#F5F5F5" d="M85.48 211.418h5.0937v-25.019H85.48v25.019ZM101.521 211.418h5.093v-23.265h-5.093v23.265Z"/><path fill="#FAFAFA" d="M90.5804 211.418h5.0938v-23.265h-5.0938v23.265Z"/><path fill="#EBEBEB" d="M95.6742 211.418h3.2928v-25.019h-3.2928v25.019Z"/><path fill="#FAFAFA" d="M98.967 211.418h2.547v-23.265h-2.547v23.265Z"/><path fill="#EBEBEB" d="M80.3862 211.418H85.48v-25.019h-5.0938v25.019Z"/><path fill="#E6E6E6" d="M75.2858 211.418h5.0937v-23.265h-5.0937v23.265ZM64.3523 211.418h5.0937v-23.265h-5.0937v23.265Z"/><path fill="#FAFAFA" d="M69.4394 211.418h3.2928v-25.019h-3.2928v25.019Z"/><path fill="#EBEBEB" d="M72.7389 211.418h2.5469v-23.265h-2.5469v23.265ZM61.7987 211.425h2.5469v-24.428h-2.5469v24.428ZM66.8925 219.932h-5.0938v25.019h5.0938v-25.019Z"/><path fill="#FAFAFA" d="M88.0269 219.932h-5.0938v25.019h5.0938v-25.019ZM71.9862 221.693h-5.0937v23.264h5.0937v-23.264Z"/><path fill="#EBEBEB" d="M82.9264 221.693h-5.0938v23.264h5.0938v-23.264Z"/><path fill="#FAFAFA" d="M77.8326 219.932h-3.2928v25.019h3.2928v-25.019Z"/><path fill="#F5F5F5" d="M74.5398 221.693h-2.5469v23.264h2.5469v-23.264Z"/><path fill="#EBEBEB" d="M93.1206 219.932h-5.0937v25.019h5.0937v-25.019Z"/><path fill="#F5F5F5" d="M98.2144 221.693h-5.0938v23.264h5.0938v-23.264Z"/><path fill="#E6E6E6" d="M109.155 221.693h-5.094v23.264h5.094v-23.264Z"/><path fill="#FAFAFA" d="M104.061 219.932h-3.293v25.019h3.293v-25.019ZM115.001 219.932h-3.293v25.019h3.293v-25.019Z"/><path fill="#EBEBEB" d="M100.768 221.693h-2.5469v23.264h2.5469v-23.264ZM111.708 220.53h-2.547v24.427h2.547V220.53Z"/><g filter="url(#f)"><path fill="#F5F5F5" d="M168.761 286.662c81.063 0 146.778-3.839 146.778-8.575 0-4.736-65.715-8.575-146.778-8.575-81.0635 0-146.7783 3.839-146.7783 8.575 0 4.736 65.7148 8.575 146.7783 8.575Z"/></g><path fill="#4173CA" d="M167.968 58.5043s10.362-7.8893 29.091-7.8893c19.4 0 29.077 7.8893 29.077 7.8893l.195-8.064-7.291-12.3446s-7.318-5.9674-21.988-5.9674c-14.159 0-21.995 5.9674-21.995 5.9674l-6.861 11.0947-.228 9.3139Z"/><path fill="#000" d="M167.968 58.5043s10.362-7.8893 29.091-7.8893c19.4 0 29.077 7.8893 29.077 7.8893l.195-8.064-7.291-12.3446s-7.318-5.9674-21.988-5.9674c-14.159 0-21.995 5.9674-21.995 5.9674l-6.861 11.0947-.228 9.3139Z" opacity=".2"/><path fill="#4173CA" d="M169.527 55.6819c-.002-.7645.241-1.5096.691-2.1272.451-.6175 1.087-1.0752 1.816-1.3067.219 2.3832.669 4.7396 1.344 7.0358h-.216c-.475.0045-.947-.0854-1.388-.2644-.441-.1791-.842-.4437-1.18-.7786-.338-.3349-.607-.7335-.79-1.1727-.183-.4392-.277-.9103-.277-1.3862ZM175.441 65.184h-.504v-1.2499c.161.4032.322.8131.504 1.2499ZM204.377 110.262c-.474.001-.943-.092-1.381-.272-.437-.181-.835-.446-1.17-.781-.336-.334-.601-.732-.783-1.169-.181-.438-.275-.907-.275-1.38v-2.137h-6.202v-5.8734h-1.808c-.957 0-1.875-.3802-2.552-1.057-.676-.6767-1.057-1.5946-1.057-2.5517 0-.957.381-1.8749 1.057-2.5516.677-.6768 1.595-1.057 2.552-1.057h.329c5.034 6.1488 9.838 11.8337 14.428 16.9947-.313.557-.769 1.02-1.321 1.342-.551.323-1.178.493-1.817.493ZM188.356 85.5993v1.0887c0 .957-.38 1.8749-1.056 2.5517-.677.6767-1.595 1.0569-2.552 1.0569-.957 0-1.875-.3802-2.552-1.0569-.677-.6768-1.057-1.5947-1.057-2.5517v-1.9085h-6.202V65.184h.504c2.358 5.5776 6.148 12.0086 12.002 19.3065l.913 1.1088Z"/><path fill="#fff" d="M188.356 85.5993v1.0887c0 .957-.38 1.8749-1.056 2.5517-.677.6767-1.595 1.0569-2.552 1.0569-.957 0-1.875-.3802-2.552-1.0569-.677-.6768-1.057-1.5947-1.057-2.5517v-1.9085h-6.202V65.184h.504c2.358 5.5776 6.148 12.0086 12.002 19.3065l.913 1.1088Z" opacity=".2"/><path fill="#4173CA" d="M174.937 38.2166c-1.425 2.1721-2.343 4.6362-2.688 7.2105h-2.776c1.519-2.6269 3.351-5.0594 5.457-7.2441l.007.0336ZM168.727 46.7443v.5913c.001.6389-.169 1.2665-.491 1.8181-.323.5516-.786 1.0073-1.343 1.3202.591-1.344 1.209-2.594 1.834-3.7296Z"/><path fill="#4173CA" d="M168.727 47.3356v-.5913c.229-.4167.464-.8199.672-1.2096h2.823c-.345 2.223-.415 4.4799-.209 6.72-.821.2599-1.522.8055-1.975 1.5377-.453.7323-.629 1.6027-.496 2.4536.133.8509.567 1.6259 1.223 2.1844.655.5585 1.489.8637 2.35.8601h.229c.448 1.5763.978 3.1284 1.586 4.6502v1.2432h-6.209v2.137c-.001.6519-.177 1.2915-.512 1.851-.334.5596-.814 1.018-1.388 1.3268-.574.3088-1.221.4562-1.872.4268-.651-.0295-1.282-.2347-1.826-.594-.237-6.8079 1.049-13.5829 3.763-19.8308.562-.3142 1.03-.7737 1.354-1.3305.324-.5568.492-1.1904.487-1.8346Z"/><path fill="#fff" d="M168.727 47.3356v-.5913c.229-.4167.464-.8199.672-1.2096h2.823c-.345 2.223-.415 4.4799-.209 6.72-.821.2599-1.522.8055-1.975 1.5377-.453.7323-.629 1.6027-.496 2.4536.133.8509.567 1.6259 1.223 2.1844.655.5585 1.489.8637 2.35.8601h.229c.448 1.5763.978 3.1284 1.586 4.6502v1.2432h-6.209v2.137c-.001.6519-.177 1.2915-.512 1.851-.334.5596-.814 1.018-1.388 1.3268-.574.3088-1.221.4562-1.872.4268-.651-.0295-1.282-.2347-1.826-.594-.237-6.8079 1.049-13.5829 3.763-19.8308.562-.3142 1.03-.7737 1.354-1.3305.324-.5568.492-1.1904.487-1.8346Z" opacity=".2"/><path fill="#4173CA" d="M165.125 70.9027c.474 0 .943-.0934 1.38-.2748.438-.1815.835-.4474 1.17-.7826.334-.3352.599-.733.78-1.1708.181-.4378.273-.9069.272-1.3805v-2.11h6.21v19.6291h-6.21v1.8749c-.001.5377-.122 1.0683-.355 1.5532-.232.4848-.57.9116-.989 1.249-2.554-6.0922-3.999-12.5918-4.267-19.1923.595.3958 1.295.6063 2.009.6048Z"/><path fill="#fff" d="M165.125 70.9027c.474 0 .943-.0934 1.38-.2748.438-.1815.835-.4474 1.17-.7826.334-.3352.599-.733.78-1.1708.181-.4378.273-.9069.272-1.3805v-2.11h6.21v19.6291h-6.21v1.8749c-.001.5377-.122 1.0683-.355 1.5532-.232.4848-.57.9116-.989 1.249-2.554-6.0922-3.999-12.5918-4.267-19.1923.595.3958 1.295.6063 2.009.6048Z" opacity=".6"/><path fill="#4173CA" d="M233.824 138.009h-1.814c-.83-.003-1.632-.292-2.274-.817-.642-.525-1.083-1.255-1.249-2.068-.166-.812-.048-1.657.335-2.392.384-.735 1.008-1.316 1.77-1.645 7.849 6.209 14.965 9.845 21.504 10.429l-1.821 2.366h-3.011v2.137c0 .957-.38 1.875-1.057 2.552-.677.676-1.595 1.057-2.552 1.057-.957 0-1.875-.381-2.551-1.057-.677-.677-1.057-1.595-1.057-2.552v-2.137h-6.223v-5.873Z"/><path fill="#fff" d="M233.824 138.009h-1.814c-.83-.003-1.632-.292-2.274-.817-.642-.525-1.083-1.255-1.249-2.068-.166-.812-.048-1.657.335-2.392.384-.735 1.008-1.316 1.77-1.645 7.849 6.209 14.965 9.845 21.504 10.429l-1.821 2.366h-3.011v2.137c0 .957-.38 1.875-1.057 2.552-.677.676-1.595 1.057-2.552 1.057-.957 0-1.875-.381-2.551-1.057-.677-.677-1.057-1.595-1.057-2.552v-2.137h-6.223v-5.873Z" opacity=".5"/><path fill="#4173CA" d="M226.983 128.09c-.434.634-1.06 1.113-1.785 1.367-.726.253-1.513.269-2.248.044-.735-.225-1.379-.679-1.838-1.295-.459-.617-.71-1.364-.715-2.132v-1.915h-6.209v-8.441c4.469 4.718 8.729 8.864 12.795 12.372Z"/><path fill="#fff" d="M226.983 128.09c-.434.634-1.06 1.113-1.785 1.367-.726.253-1.513.269-2.248.044-.735-.225-1.379-.679-1.838-1.295-.459-.617-.71-1.364-.715-2.132v-1.915h-6.209v-8.441c4.469 4.718 8.729 8.864 12.795 12.372Z" opacity=".5"/><path fill="#4173CA" d="M200.768 126.06v-1.915h-6.202v-6.095h-1.808c-.957 0-1.875-.38-2.552-1.057-.676-.677-1.057-1.594-1.057-2.551 0-.958.381-1.875 1.057-2.552.677-.677 1.595-1.057 2.552-1.057h1.808v-6.31h6.202v2.137c.013.787.283 1.548.769 2.167.486.619 1.16 1.063 1.922 1.263.761.2 1.566.146 2.294-.154.727-.3 1.337-.83 1.735-1.509 2.276 2.563 4.5 4.993 6.673 7.291v8.427h-6.202v1.915c0 .957-.38 1.875-1.057 2.552-.677.677-1.595 1.057-2.552 1.057-.957 0-1.875-.38-2.552-1.057-.676-.677-1.057-1.595-1.057-2.552h.027Z"/><path fill="#4173CA" d="M200.768 126.06v-1.915h-6.202v-6.095h-1.808c-.957 0-1.875-.38-2.552-1.057-.676-.677-1.057-1.594-1.057-2.551 0-.958.381-1.875 1.057-2.552.677-.677 1.595-1.057 2.552-1.057h1.808v-6.31h6.202v2.137c.013.787.283 1.548.769 2.167.486.619 1.16 1.063 1.922 1.263.761.2 1.566.146 2.294-.154.727-.3 1.337-.83 1.735-1.509 2.276 2.563 4.5 4.993 6.673 7.291v8.427h-6.202v1.915c0 .957-.38 1.875-1.057 2.552-.677.677-1.595 1.057-2.552 1.057-.957 0-1.875-.38-2.552-1.057-.676-.677-1.057-1.595-1.057-2.552h.027Z"/><path fill="#fff" d="M200.768 126.06v-1.915h-6.202v-6.095h-1.808c-.957 0-1.875-.38-2.552-1.057-.676-.677-1.057-1.594-1.057-2.551 0-.958.381-1.875 1.057-2.552.677-.677 1.595-1.057 2.552-1.057h1.808v-6.31h6.202v2.137c.013.787.283 1.548.769 2.167.486.619 1.16 1.063 1.922 1.263.761.2 1.566.146 2.294-.154.727-.3 1.337-.83 1.735-1.509 2.276 2.563 4.5 4.993 6.673 7.291v8.427h-6.202v1.915c0 .957-.38 1.875-1.057 2.552-.677.677-1.595 1.057-2.552 1.057-.957 0-1.875-.38-2.552-1.057-.676-.677-1.057-1.595-1.057-2.552h.027Z" opacity=".7"/><path fill="#4173CA" d="M207.986 124.206v1.854c0 .958-.381 1.875-1.057 2.552-.677.677-1.595 1.057-2.552 1.057-.957 0-1.875-.38-2.552-1.057-.677-.677-1.057-1.594-1.057-2.552v-1.915h-6.202v6.277c4.214 5.116 8.7 10.002 13.44 14.636v-1.176h6.202v-5.873h-1.821c-.957 0-1.875-.381-2.552-1.057-.676-.677-1.057-1.595-1.057-2.552 0-.957.381-1.875 1.057-2.552.677-.676 1.595-1.057 2.552-1.057h1.801v-6.646h-6.202v.061Z"/><path fill="#fff" d="M207.986 124.206v1.854c0 .958-.381 1.875-1.057 2.552-.677.677-1.595 1.057-2.552 1.057-.957 0-1.875-.38-2.552-1.057-.677-.677-1.057-1.594-1.057-2.552v-1.915h-6.202v6.277c4.214 5.116 8.7 10.002 13.44 14.636v-1.176h6.202v-5.873h-1.821c-.957 0-1.875-.381-2.552-1.057-.676-.677-1.057-1.595-1.057-2.552 0-.957.381-1.875 1.057-2.552.677-.676 1.595-1.057 2.552-1.057h1.801v-6.646h-6.202v.061Z" opacity=".2"/><path fill="#4173CA" d="M194.566 124.253v6.169c-1.613-1.942-3.266-3.992-4.953-6.169l-.081-.108h5.034v.108Z"/><path fill="#4173CA" d="M181.139 104.523v2.137c0 .957.38 1.875 1.057 2.551.677.677 1.595 1.057 2.552 1.057.957 0 1.875-.38 2.551-1.057.677-.676 1.057-1.594 1.057-2.551v-2.137h6.21v6.31h-1.808c-.957 0-1.875.38-2.552 1.057-.676.677-1.057 1.594-1.057 2.552 0 .957.381 1.874 1.057 2.551.677.677 1.595 1.057 2.552 1.057h1.808v6.095h-5.034c-4.408-5.685-9.078-12.19-13.977-19.622h5.584ZM233.824 157.409h-1.814c-.958 0-1.875-.38-2.552-1.057-.677-.676-1.057-1.594-1.057-2.551 0-.957.38-1.875 1.057-2.552.677-.677 1.594-1.057 2.552-1.057h1.814v-6.31h6.202v2.137c0 .957.381 1.875 1.057 2.552.677.676 1.595 1.056 2.552 1.056.957 0 1.875-.38 2.552-1.056.677-.677 1.057-1.595 1.057-2.552v-2.137h3.01l-15.086 19.622c-.456-.094-.905-.217-1.344-.369v-5.726Z"/><path fill="#fff" d="M233.824 157.409h-1.814c-.958 0-1.875-.38-2.552-1.057-.677-.676-1.057-1.594-1.057-2.551 0-.957.38-1.875 1.057-2.552.677-.677 1.594-1.057 2.552-1.057h1.814v-6.31h6.202v2.137c0 .957.381 1.875 1.057 2.552.677.676 1.595 1.056 2.552 1.056.957 0 1.875-.38 2.552-1.056.677-.677 1.057-1.595 1.057-2.552v-2.137h3.01l-15.086 19.622c-.456-.094-.905-.217-1.344-.369v-5.726Z" opacity=".2"/><path fill="#4173CA" d="M220.384 146.019c-.021.486.057.972.228 1.428.172.456.434.872.771 1.224.337.351.741.631 1.189.822.448.192.93.29 1.417.29s.969-.098 1.417-.29c.448-.191.853-.471 1.189-.822.337-.352.599-.768.771-1.224.172-.456.25-.942.229-1.428v-2.137h6.229v6.31h-1.814c-.958 0-1.875.38-2.552 1.057-.677.677-1.057 1.595-1.057 2.552 0 .957.38 1.875 1.057 2.551.677.677 1.594 1.057 2.552 1.057h1.814v5.726c-2.735-.908-9.576-3.811-19.629-12.405v-6.848h6.189v2.137Z"/><path fill="#fff" d="M220.384 146.019c-.021.486.057.972.228 1.428.172.456.434.872.771 1.224.337.351.741.631 1.189.822.448.192.93.29 1.417.29s.969-.098 1.417-.29c.448-.191.853-.471 1.189-.822.337-.352.599-.768.771-1.224.172-.456.25-.942.229-1.428v-2.137h6.229v6.31h-1.814c-.958 0-1.875.38-2.552 1.057-.677.677-1.057 1.595-1.057 2.552 0 .957.38 1.875 1.057 2.551.677.677 1.594 1.057 2.552 1.057h1.814v5.726c-2.735-.908-9.576-3.811-19.629-12.405v-6.848h6.189v2.137Z" opacity=".7"/><path fill="#4173CA" d="M207.986 145.058v-1.176h6.202v6.848c-1.949-1.667-4.018-3.562-6.202-5.672ZM214.188 124.253v6.538h-1.801c-.957 0-1.875.381-2.552 1.057-.676.677-1.056 1.595-1.056 2.552 0 .957.38 1.875 1.056 2.552.677.676 1.595 1.057 2.552 1.057h1.801v5.873h6.196v2.137c-.021.486.057.972.228 1.428.172.456.434.872.771 1.224.337.351.742.631 1.189.822.448.192.93.29 1.417.29s.969-.098 1.417-.29c.448-.191.853-.471 1.189-.822.337-.352.599-.768.771-1.224.172-.456.25-.942.229-1.428v-2.137h6.229v-5.873h-1.814c-.83-.003-1.632-.292-2.274-.817-.642-.525-1.083-1.255-1.249-2.068-.166-.812-.048-1.657.335-2.392.384-.735 1.008-1.316 1.77-1.645-1.183-.941-2.393-1.942-3.609-2.997-.434.634-1.06 1.113-1.785 1.367-.726.253-1.513.269-2.248.044-.735-.225-1.379-.679-1.838-1.295-.459-.617-.71-1.364-.715-2.132v-1.915h-6.209s-.02.094 0 .094Z"/><path fill="#fff" d="M214.188 124.253v6.538h-1.801c-.957 0-1.875.381-2.552 1.057-.676.677-1.056 1.595-1.056 2.552 0 .957.38 1.875 1.056 2.552.677.676 1.595 1.057 2.552 1.057h1.801v5.873h6.196v2.137c-.021.486.057.972.228 1.428.172.456.434.872.771 1.224.337.351.742.631 1.189.822.448.192.93.29 1.417.29s.969-.098 1.417-.29c.448-.191.853-.471 1.189-.822.337-.352.599-.768.771-1.224.172-.456.25-.942.229-1.428v-2.137h6.229v-5.873h-1.814c-.83-.003-1.632-.292-2.274-.817-.642-.525-1.083-1.255-1.249-2.068-.166-.812-.048-1.657.335-2.392.384-.735 1.008-1.316 1.77-1.645-1.183-.941-2.393-1.942-3.609-2.997-.434.634-1.06 1.113-1.785 1.367-.726.253-1.513.269-2.248.044-.735-.225-1.379-.679-1.838-1.295-.459-.617-.71-1.364-.715-2.132v-1.915h-6.209s-.02.094 0 .094Z" opacity=".4"/><path fill="#4173CA" d="M181.139 84.8937v1.7943c0 .9571.38 1.8749 1.057 2.5517.677.6767 1.595 1.0569 2.552 1.0569.957 0 1.875-.3802 2.551-1.0569.677-.6768 1.057-1.5946 1.057-2.5517v-1.0954c1.6 1.9891 3.168 3.9335 4.704 5.833h-.329c-.957 0-1.875.3802-2.552 1.0569-.676.6768-1.057 1.5946-1.057 2.5517 0 .9571.381 1.875 1.057 2.5517.677.6768 1.595 1.057 2.552 1.057h1.808v5.8731h-6.21v2.137c0 .957-.38 1.875-1.056 2.552-.677.677-1.595 1.057-2.552 1.057-.957 0-1.875-.38-2.552-1.057-.677-.677-1.057-1.595-1.057-2.552v-2.137h-5.584l-.618-.947v-4.9194h-1.801c-.486.0015-.966-.0968-1.412-.289-.766-1.344-1.476-2.688-2.13-4.032.159-.8226.6-1.5642 1.246-2.0976.646-.5333 1.458-.8252 2.296-.8256h1.801v-6.6461h6.202l.027.1344Z"/><path fill="#fff" d="M181.139 84.8937v1.7943c0 .9571.38 1.8749 1.057 2.5517.677.6767 1.595 1.0569 2.552 1.0569.957 0 1.875-.3802 2.551-1.0569.677-.6768 1.057-1.5946 1.057-2.5517v-1.0954c1.6 1.9891 3.168 3.9335 4.704 5.833h-.329c-.957 0-1.875.3802-2.552 1.0569-.676.6768-1.057 1.5946-1.057 2.5517 0 .9571.381 1.875 1.057 2.5517.677.6768 1.595 1.057 2.552 1.057h1.808v5.8731h-6.21v2.137c0 .957-.38 1.875-1.056 2.552-.677.677-1.595 1.057-2.552 1.057-.957 0-1.875-.38-2.552-1.057-.677-.677-1.057-1.595-1.057-2.552v-2.137h-5.584l-.618-.947v-4.9194h-1.801c-.486.0015-.966-.0968-1.412-.289-.766-1.344-1.476-2.688-2.13-4.032.159-.8226.6-1.5642 1.246-2.0976.646-.5333 1.458-.8252 2.296-.8256h1.801v-6.6461h6.202l.027.1344Z" opacity=".5"/><path fill="#4173CA" d="M174.937 98.6496v4.9254c-.141-.208-.276-.416-.41-.631-1.015-1.546-1.942-3.0781-2.803-4.5834.446.1922.926.2905 1.412.289h1.801ZM174.937 84.8937v6.5386h-1.801c-.838.0003-1.65.2922-2.296.8256-.646.5334-1.087 1.275-1.246 2.0976-.82-1.6531-1.552-3.2727-2.197-4.8586.418-.3374.756-.7642.989-1.249.232-.4848.354-1.0155.355-1.5532v-1.9085h6.209l-.013.1075Z"/><g opacity=".7"><path fill="#fff" d="M174.937 98.6496v4.9254c-.142-.208-.276-.416-.41-.631-1.015-1.546-1.942-3.0781-2.803-4.5834.446.1922.926.2905 1.412.289h1.801ZM174.937 84.8937v6.5386h-1.801c-.838.0003-1.65.2922-2.296.8256-.646.5334-1.087 1.275-1.246 2.0976-.82-1.6531-1.552-3.2727-2.197-4.8586.418-.3374.756-.7642.989-1.249.232-.4848.354-1.0155.355-1.5532v-1.9085h6.209l-.013.1075Z"/></g><path fill="#4173CA" d="M224.517 55.6819c.001-.7645-.241-1.5096-.692-2.1272-.45-.6175-1.086-1.0752-1.815-1.3067-.219 2.3832-.669 4.7396-1.344 7.0358h.222c.475.0036.947-.087 1.387-.2664.44-.1794.84-.4442 1.177-.779.338-.3348.605-.7331.788-1.1719.183-.4387.277-.9093.277-1.3846ZM218.61 65.184h.497v-1.2499c-.161.4032-.322.8131-.497 1.2499ZM189.667 110.262c.473.001.942-.092 1.38-.272.438-.181.836-.446 1.171-.781.335-.334.601-.732.783-1.169.181-.438.274-.907.274-1.38v-2.137h6.21v-5.8734h1.801c.957 0 1.875-.3802 2.551-1.057.677-.6767 1.057-1.5946 1.057-2.5517 0-.957-.38-1.8749-1.057-2.5516-.676-.6768-1.594-1.057-2.551-1.057h-.33c-5.033 6.1488-9.838 11.8337-14.427 16.9947.313.557.769 1.02 1.32 1.342.552.323 1.179.493 1.818.493Z"/><path fill="#fff" d="M189.667 110.262c.473.001.942-.092 1.38-.272.438-.181.836-.446 1.171-.781.335-.334.601-.732.783-1.169.181-.438.274-.907.274-1.38v-2.137h6.21v-5.8734h1.801c.957 0 1.875-.3802 2.551-1.057.677-.6767 1.057-1.5946 1.057-2.5517 0-.957-.38-1.8749-1.057-2.5516-.676-.6768-1.594-1.057-2.551-1.057h-.33c-5.033 6.1488-9.838 11.8337-14.427 16.9947.313.557.769 1.02 1.32 1.342.552.323 1.179.493 1.818.493Z" opacity=".2"/><path fill="#4173CA" d="M205.687 85.5993v1.0887c0 .957.38 1.8749 1.057 2.5517.677.6767 1.595 1.0569 2.552 1.0569.957 0 1.875-.3802 2.552-1.0569.676-.6768 1.057-1.5947 1.057-2.5517v-1.9085h6.202V65.184h-.497c-2.366 5.5776-6.149 12.0086-12.009 19.3065-.329.3562-.611.7325-.914 1.1088Z"/><path fill="#fff" d="M205.687 85.5993v1.0887c0 .957.38 1.8749 1.057 2.5517.677.6767 1.595 1.0569 2.552 1.0569.957 0 1.875-.3802 2.552-1.0569.676-.6768 1.057-1.5947 1.057-2.5517v-1.9085h6.202V65.184h-.497c-2.366 5.5776-6.149 12.0086-12.009 19.3065-.329.3562-.611.7325-.914 1.1088Z" opacity=".2"/><path fill="#4173CA" d="M219.107 38.2166c1.427 2.1705 2.346 4.6353 2.688 7.2105h2.776c-1.519-2.6269-3.351-5.0594-5.457-7.2441l-.007.0336ZM225.316 46.7443v.5913c0 .6389.169 1.2665.492 1.8181.322.5516.786 1.0073 1.343 1.3202-.591-1.344-1.21-2.594-1.835-3.7296Z"/><path fill="#4173CA" d="M225.316 47.3356v-.5913c-.228-.4167-.457-.8199-.672-1.2096h-2.815c.338 2.2236.406 4.48.201 6.72.821.2597 1.521.8047 1.975 1.5363.453.7315.63 1.6013.497 2.4517-.132.8504-.565 1.6253-1.219 2.1844-.654.5591-1.487.8654-2.348.8634h-.222c-.448 1.5763-.978 3.1284-1.586 4.6502v1.2432h6.21v2.137c0 .6519.176 1.2915.511 1.851.334.5596.814 1.018 1.388 1.3268.574.3088 1.221.4562 1.872.4268.651-.0295 1.282-.2347 1.826-.594.24-6.8081-1.046-13.5837-3.763-19.8308-.565-.3124-1.035-.7712-1.361-1.3281-.327-.557-.497-1.1915-.494-1.837Z"/><path fill="#fff" d="M225.316 47.3356v-.5913c-.228-.4167-.457-.8199-.672-1.2096h-2.815c.338 2.2236.406 4.48.201 6.72.821.2597 1.521.8047 1.975 1.5363.453.7315.63 1.6013.497 2.4517-.132.8504-.565 1.6253-1.219 2.1844-.654.5591-1.487.8654-2.348.8634h-.222c-.448 1.5763-.978 3.1284-1.586 4.6502v1.2432h6.21v2.137c0 .6519.176 1.2915.511 1.851.334.5596.814 1.018 1.388 1.3268.574.3088 1.221.4562 1.872.4268.651-.0295 1.282-.2347 1.826-.594.24-6.8081-1.046-13.5837-3.763-19.8308-.565-.3124-1.035-.7712-1.361-1.3281-.327-.557-.497-1.1915-.494-1.837Z" opacity=".5"/><path fill="#4173CA" d="M228.925 70.9027c-.474.0009-.944-.0919-1.382-.2729-.438-.181-.836-.4468-1.172-.7821-.335-.3353-.601-.7334-.782-1.1716-.181-.4383-.273-.9079-.273-1.3821v-2.11h-6.209v19.6291h6.209v1.8749c.002.5377.123 1.0683.355 1.5532.233.4848.571.9116.989 1.249 2.555-6.0922 4-12.5918 4.268-19.1923-.594.3949-1.29.6053-2.003.6048Z"/><path fill="#fff" d="M228.925 70.9027c-.474.0009-.944-.0919-1.382-.2729-.438-.181-.836-.4468-1.172-.7821-.335-.3353-.601-.7334-.782-1.1716-.181-.4383-.273-.9079-.273-1.3821v-2.11h-6.209v19.6291h6.209v1.8749c.002.5377.123 1.0683.355 1.5532.233.4848.571.9116.989 1.249 2.555-6.0922 4-12.5918 4.268-19.1923-.594.3949-1.29.6053-2.003.6048Z" opacity=".6"/><path fill="#4173CA" d="M160.227 138.009h1.807c.829-.003 1.632-.292 2.274-.817.641-.525 1.082-1.255 1.249-2.068.166-.812.048-1.657-.336-2.392-.383-.735-1.008-1.316-1.769-1.645-7.849 6.209-14.965 9.845-21.504 10.429l1.821 2.366h3.011v2.137c0 .957.38 1.875 1.057 2.552.676.676 1.594 1.057 2.551 1.057.958 0 1.875-.381 2.552-1.057.677-.677 1.057-1.595 1.057-2.552v-2.137h6.203l.027-5.873Z"/><path fill="#fff" d="M160.227 138.009h1.807c.829-.003 1.632-.292 2.274-.817.641-.525 1.082-1.255 1.249-2.068.166-.812.048-1.657-.336-2.392-.383-.735-1.008-1.316-1.769-1.645-7.849 6.209-14.965 9.845-21.504 10.429l1.821 2.366h3.011v2.137c0 .957.38 1.875 1.057 2.552.676.676 1.594 1.057 2.551 1.057.958 0 1.875-.381 2.552-1.057.677-.677 1.057-1.595 1.057-2.552v-2.137h6.203l.027-5.873Z" opacity=".5"/><path fill="#4173CA" d="M167.061 128.09c.434.634 1.06 1.113 1.785 1.367.726.253 1.513.269 2.248.044.735-.225 1.379-.679 1.838-1.295.459-.617.709-1.364.714-2.132v-1.915h6.21v-8.441c-4.496 4.718-8.73 8.864-12.795 12.372Z"/><path fill="#fff" d="M167.061 128.09c.434.634 1.06 1.113 1.785 1.367.726.253 1.513.269 2.248.044.735-.225 1.379-.679 1.838-1.295.459-.617.709-1.364.714-2.132v-1.915h6.21v-8.441c-4.496 4.718-8.73 8.864-12.795 12.372Z" opacity=".5"/><path fill="#4173CA" d="M193.276 126.06v-1.915h6.209v-6.095h1.801c.474 0 .943-.093 1.381-.275.438-.181.835-.447 1.17-.782.336-.335.601-.733.783-1.17.181-.438.274-.908.274-1.381 0-.474-.093-.944-.274-1.381-.182-.438-.447-.836-.783-1.171-.335-.335-.732-.601-1.17-.782-.438-.182-.907-.275-1.381-.275h-1.801v-6.31h-6.209v2.137c-.014.787-.283 1.548-.769 2.167-.486.619-1.161 1.063-1.922 1.263-.761.2-1.567.146-2.294-.154-.728-.3-1.337-.83-1.735-1.509-2.276 2.563-4.501 4.993-6.673 7.291v8.427h6.202v1.915c0 .957.38 1.875 1.057 2.552.677.677 1.595 1.057 2.552 1.057.957 0 1.875-.38 2.551-1.057.677-.677 1.057-1.595 1.057-2.552h-.026Z"/><path fill="#4173CA" d="M193.276 126.06v-1.915h6.209v-6.095h1.801c.474 0 .943-.093 1.381-.275.438-.181.835-.447 1.17-.782.336-.335.601-.733.783-1.17.181-.438.274-.908.274-1.381 0-.474-.093-.944-.274-1.381-.182-.438-.447-.836-.783-1.171-.335-.335-.732-.601-1.17-.782-.438-.182-.907-.275-1.381-.275h-1.801v-6.31h-6.209v2.137c-.014.787-.283 1.548-.769 2.167-.486.619-1.161 1.063-1.922 1.263-.761.2-1.567.146-2.294-.154-.728-.3-1.337-.83-1.735-1.509-2.276 2.563-4.501 4.993-6.673 7.291v8.427h6.202v1.915c0 .957.38 1.875 1.057 2.552.677.677 1.595 1.057 2.552 1.057.957 0 1.875-.38 2.551-1.057.677-.677 1.057-1.595 1.057-2.552h-.026Z"/><path fill="#fff" d="M193.276 126.06v-1.915h6.209v-6.095h1.801c.474 0 .943-.093 1.381-.275.438-.181.835-.447 1.17-.782.336-.335.601-.733.783-1.17.181-.438.274-.908.274-1.381 0-.474-.093-.944-.274-1.381-.182-.438-.447-.836-.783-1.171-.335-.335-.732-.601-1.17-.782-.438-.182-.907-.275-1.381-.275h-1.801v-6.31h-6.209v2.137c-.014.787-.283 1.548-.769 2.167-.486.619-1.161 1.063-1.922 1.263-.761.2-1.567.146-2.294-.154-.728-.3-1.337-.83-1.735-1.509-2.276 2.563-4.501 4.993-6.673 7.291v8.427h6.202v1.915c0 .957.38 1.875 1.057 2.552.677.677 1.595 1.057 2.552 1.057.957 0 1.875-.38 2.551-1.057.677-.677 1.057-1.595 1.057-2.552h-.026Z" opacity=".7"/><path fill="#4173CA" d="M186.058 124.206v1.854c0 .958.38 1.875 1.057 2.552.677.677 1.595 1.057 2.552 1.057.957 0 1.875-.38 2.551-1.057.677-.677 1.057-1.594 1.057-2.552v-1.915h6.21v6.277c-4.216 5.114-8.703 10-13.44 14.636v-1.176h-6.203v-5.873h1.801c.957 0 1.875-.381 2.552-1.057.677-.677 1.057-1.595 1.057-2.552 0-.957-.38-1.875-1.057-2.552-.677-.676-1.595-1.057-2.552-1.057h-1.801v-6.646h6.203l.013.061Z"/><path fill="#fff" d="M186.058 124.206v1.854c0 .958.38 1.875 1.057 2.552.677.677 1.595 1.057 2.552 1.057.957 0 1.875-.38 2.551-1.057.677-.677 1.057-1.594 1.057-2.552v-1.915h6.21v6.277c-4.216 5.114-8.703 10-13.44 14.636v-1.176h-6.203v-5.873h1.801c.957 0 1.875-.381 2.552-1.057.677-.677 1.057-1.595 1.057-2.552 0-.957-.38-1.875-1.057-2.552-.677-.676-1.595-1.057-2.552-1.057h-1.801v-6.646h6.203l.013.061Z" opacity=".5"/><path fill="#4173CA" d="M199.485 124.253v6.169c1.606-1.942 3.259-3.992 4.946-6.169l.08-.108h-5.026v.108Z"/><path fill="#4173CA" d="M212.905 104.523v2.137c0 .957-.381 1.875-1.057 2.551-.677.677-1.595 1.057-2.552 1.057-.957 0-1.875-.38-2.552-1.057-.676-.676-1.057-1.594-1.057-2.551v-2.137h-6.202v6.31h1.801c.474 0 .943.093 1.381.275.437.181.835.447 1.17.782.335.335.601.733.783 1.171.181.437.274.907.274 1.381 0 .473-.093.943-.274 1.381-.182.437-.448.835-.783 1.17-.335.335-.733.601-1.17.782-.438.182-.907.275-1.381.275h-1.801v6.095h5.026c4.415-5.685 9.079-12.19 13.978-19.622h-5.584Z"/><path fill="#fff" d="M212.905 104.523v2.137c0 .957-.381 1.875-1.057 2.551-.677.677-1.595 1.057-2.552 1.057-.957 0-1.875-.38-2.552-1.057-.676-.676-1.057-1.594-1.057-2.551v-2.137h-6.202v6.31h1.801c.474 0 .943.093 1.381.275.437.181.835.447 1.17.782.335.335.601.733.783 1.171.181.437.274.907.274 1.381 0 .473-.093.943-.274 1.381-.182.437-.448.835-.783 1.17-.335.335-.733.601-1.17.782-.438.182-.907.275-1.381.275h-1.801v6.095h5.026c4.415-5.685 9.079-12.19 13.978-19.622h-5.584Z" opacity=".2"/><path fill="#4173CA" d="M160.227 157.409h1.807c.957 0 1.875-.38 2.552-1.057.677-.676 1.057-1.594 1.057-2.551 0-.957-.38-1.875-1.057-2.552-.677-.677-1.595-1.057-2.552-1.057h-1.807v-6.31h-6.203v2.137c0 .957-.38 1.875-1.057 2.552-.677.676-1.595 1.056-2.552 1.056-.957 0-1.875-.38-2.551-1.056-.677-.677-1.057-1.595-1.057-2.552v-2.137h-3.031l15.1 19.622c.455-.094.904-.217 1.344-.369l.007-5.726Z"/><path fill="#fff" d="M160.227 157.409h1.807c.957 0 1.875-.38 2.552-1.057.677-.676 1.057-1.594 1.057-2.551 0-.957-.38-1.875-1.057-2.552-.677-.677-1.595-1.057-2.552-1.057h-1.807v-6.31h-6.203v2.137c0 .957-.38 1.875-1.057 2.552-.677.676-1.595 1.056-2.552 1.056-.957 0-1.875-.38-2.551-1.056-.677-.677-1.057-1.595-1.057-2.552v-2.137h-3.031l15.1 19.622c.455-.094.904-.217 1.344-.369l.007-5.726Z" opacity=".2"/><path fill="#4173CA" d="M173.646 146.019c.021.486-.056.972-.228 1.428-.172.456-.434.872-.771 1.224-.337.351-.741.631-1.189.822-.448.192-.93.29-1.417.29s-.969-.098-1.417-.29c-.448-.191-.852-.471-1.189-.822-.337-.352-.599-.768-.771-1.224-.171-.456-.249-.942-.228-1.428v-2.137h-6.209v6.31h1.807c.957 0 1.875.38 2.552 1.057.677.677 1.057 1.595 1.057 2.552 0 .957-.38 1.875-1.057 2.551-.677.677-1.595 1.057-2.552 1.057h-1.807v5.726c2.735-.908 9.576-3.811 19.629-12.405v-6.848h-6.21v2.137Z"/><path fill="#fff" d="M173.646 146.019c.021.486-.056.972-.228 1.428-.172.456-.434.872-.771 1.224-.337.351-.741.631-1.189.822-.448.192-.93.29-1.417.29s-.969-.098-1.417-.29c-.448-.191-.852-.471-1.189-.822-.337-.352-.599-.768-.771-1.224-.171-.456-.249-.942-.228-1.428v-2.137h-6.209v6.31h1.807c.957 0 1.875.38 2.552 1.057.677.677 1.057 1.595 1.057 2.552 0 .957-.38 1.875-1.057 2.551-.677.677-1.595 1.057-2.552 1.057h-1.807v5.726c2.735-.908 9.576-3.811 19.629-12.405v-6.848h-6.21v2.137Z" opacity=".7"/><path fill="#4173CA" d="M186.058 145.058v-1.176h-6.202v6.848c1.948-1.667 4.018-3.562 6.202-5.672ZM179.856 124.253v6.538h1.801c.957 0 1.875.381 2.551 1.057.677.677 1.057 1.595 1.057 2.552 0 .957-.38 1.875-1.057 2.552-.676.676-1.594 1.057-2.551 1.057h-1.801v5.873h-6.21v2.137c.021.486-.056.972-.228 1.428-.172.456-.434.872-.771 1.224-.337.351-.741.631-1.189.822-.448.192-.93.29-1.417.29s-.969-.098-1.417-.29c-.448-.191-.852-.471-1.189-.822-.337-.352-.599-.768-.771-1.224-.171-.456-.249-.942-.228-1.428v-2.137h-6.209v-5.873h1.807c.829-.003 1.632-.292 2.274-.817.641-.525 1.082-1.255 1.249-2.068.166-.812.048-1.657-.335-2.392-.384-.735-1.009-1.316-1.77-1.645 1.192-.941 2.395-1.94 3.609-2.997.434.634 1.06 1.113 1.785 1.367.726.253 1.513.269 2.248.044.735-.225 1.379-.679 1.838-1.295.459-.617.709-1.364.714-2.132v-1.915h6.21s.027.094 0 .094Z"/><path fill="#fff" d="M179.856 124.253v6.538h1.801c.957 0 1.875.381 2.551 1.057.677.677 1.057 1.595 1.057 2.552 0 .957-.38 1.875-1.057 2.552-.676.676-1.594 1.057-2.551 1.057h-1.801v5.873h-6.21v2.137c.021.486-.056.972-.228 1.428-.172.456-.434.872-.771 1.224-.337.351-.741.631-1.189.822-.448.192-.93.29-1.417.29s-.969-.098-1.417-.29c-.448-.191-.852-.471-1.189-.822-.337-.352-.599-.768-.771-1.224-.171-.456-.249-.942-.228-1.428v-2.137h-6.209v-5.873h1.807c.829-.003 1.632-.292 2.274-.817.641-.525 1.082-1.255 1.249-2.068.166-.812.048-1.657-.335-2.392-.384-.735-1.009-1.316-1.77-1.645 1.192-.941 2.395-1.94 3.609-2.997.434.634 1.06 1.113 1.785 1.367.726.253 1.513.269 2.248.044.735-.225 1.379-.679 1.838-1.295.459-.617.709-1.364.714-2.132v-1.915h6.21s.027.094 0 .094Z" opacity=".2"/><path fill="#4173CA" d="M212.905 84.8937v1.7943c0 .9571-.381 1.8749-1.057 2.5517-.677.6767-1.595 1.0569-2.552 1.0569-.957 0-1.875-.3802-2.552-1.0569-.676-.6768-1.057-1.5946-1.057-2.5517v-1.0954c-1.599 1.9891-3.167 3.9335-4.704 5.833h.33c.957 0 1.875.3802 2.551 1.0569.677.6768 1.057 1.5946 1.057 2.5517 0 .9571-.38 1.875-1.057 2.5517-.676.6768-1.594 1.057-2.551 1.057h-1.828v5.8731h6.202v2.137c0 .957.381 1.875 1.057 2.552.677.677 1.595 1.057 2.552 1.057.957 0 1.875-.38 2.552-1.057.676-.677 1.057-1.595 1.057-2.552v-2.137h5.584l.618-.947v-4.9194h1.808c.483.0016.961-.0968 1.404-.289.773-1.344 1.479-2.688 2.131-4.032-.158-.822-.597-1.5635-1.242-2.097-.645-.5334-1.456-.8256-2.293-.8262h-1.808v-6.6461h-6.202v.1344Z"/><path fill="#fff" d="M212.905 84.8937v1.7943c0 .9571-.381 1.8749-1.057 2.5517-.677.6767-1.595 1.0569-2.552 1.0569-.957 0-1.875-.3802-2.552-1.0569-.676-.6768-1.057-1.5946-1.057-2.5517v-1.0954c-1.599 1.9891-3.167 3.9335-4.704 5.833h.33c.957 0 1.875.3802 2.551 1.0569.677.6768 1.057 1.5946 1.057 2.5517 0 .9571-.38 1.875-1.057 2.5517-.676.6768-1.594 1.057-2.551 1.057h-1.828v5.8731h6.202v2.137c0 .957.381 1.875 1.057 2.552.677.677 1.595 1.057 2.552 1.057.957 0 1.875-.38 2.552-1.057.676-.677 1.057-1.595 1.057-2.552v-2.137h5.584l.618-.947v-4.9194h1.808c.483.0016.961-.0968 1.404-.289.773-1.344 1.479-2.688 2.131-4.032-.158-.822-.597-1.5635-1.242-2.097-.645-.5334-1.456-.8256-2.293-.8262h-1.808v-6.6461h-6.202v.1344Z" opacity=".5"/><path fill="#4173CA" d="M219.107 98.6496v4.9254l.417-.631c1.008-1.546 1.935-3.0781 2.795-4.5834-.443.1922-.921.2906-1.404.289h-1.808ZM219.107 84.8937v6.5386h1.808c.837.0006 1.648.2927 2.293.8262.645.5334 1.084 1.2749 1.242 2.097.819-1.6531 1.552-3.2727 2.197-4.8586-.419-.3374-.757-.7642-.989-1.249-.233-.4848-.354-1.0155-.355-1.5532v-1.9085h-6.196v.1075Z"/><g opacity=".7"><path fill="#fff" d="M219.107 98.6496v4.9254l.417-.631c1.008-1.546 1.935-3.0781 2.795-4.5834-.443.1922-.921.2906-1.404.289h-1.808ZM219.107 84.8937v6.5386h1.808c.837.0006 1.648.2927 2.293.8262.645.5334 1.084 1.2749 1.242 2.097.819-1.6531 1.552-3.2727 2.197-4.8586-.419-.3374-.757-.7642-.989-1.249-.233-.4848-.354-1.0155-.355-1.5532v-1.9085h-6.196v.1075Z"/></g><path fill="#4173CA" d="M251.605 237.115v41.093h2.271v-20.563c0-7.211 3.817-13.057 8.515-13.057 4.697 0 8.514 5.846 8.514 13.057v20.563h2.271v-41.093h-21.571Z"/><path fill="#fff" d="M251.605 237.115v41.093h2.271v-20.563c0-7.211 3.817-13.057 8.515-13.057 4.697 0 8.514 5.846 8.514 13.057v20.563h2.271v-41.093h-21.571Z" opacity=".1"/><path fill="#4173CA" d="M270.32 237.115h-32.256l6.048-33.23h30.24l-4.032 33.23Z"/><path fill="#fff" d="M270.32 237.115h-32.256l6.048-33.23h30.24l-4.032 33.23Z" opacity=".3"/><path fill="#4173CA" d="M218.509 237.115v41.093h3.488v-20.563c0-3.465 1.376-6.788 3.826-9.238 2.45-2.45 5.773-3.826 9.238-3.826 3.464 0 6.787 1.376 9.237 3.826s3.826 5.773 3.826 9.238v20.563h3.481v-41.093h-33.096Z"/><path fill="#4173CA" d="M218.509 237.115v41.093h2.272v-20.563c0-7.211 3.816-13.057 8.514-13.057 4.697 0 8.514 5.846 8.514 13.057v20.563h2.271v-41.093h-21.571Z"/><path fill="#fff" d="M218.509 237.115v41.093h2.272v-20.563c0-7.211 3.816-13.057 8.514-13.057 4.697 0 8.514 5.846 8.514 13.057v20.563h2.271v-41.093h-21.571Z" opacity=".3"/><path fill="#4173CA" d="m273.176 203.885-6.048 33.23H240.08v41.093h3.488v-20.563c0-3.465 1.376-6.788 3.826-9.238 2.45-2.45 5.773-3.826 9.238-3.826 3.464 0 6.787 1.376 9.237 3.826s3.826 5.773 3.826 9.238v20.563h3.481v-41.093l4.032-33.23h-4.032Z"/><path fill="#fff" d="m273.176 203.885-6.048 33.23H240.08v41.093h3.488v-20.563c0-3.465 1.376-6.788 3.826-9.238 2.45-2.45 5.773-3.826 9.238-3.826 3.464 0 6.787 1.376 9.237 3.826s3.826 5.773 3.826 9.238v20.563h3.481v-41.093l4.032-33.23h-4.032Z" opacity=".5"/><path fill="#EEC1BB" d="M218.993 219.468c-3.091.377-9.744 2.574-9.522 7.164.222 4.59 4.146 45.474 4.146 45.474h6.162s4.254-33.264 2.352-38.754h7.5l-7.164-13.884s-2.614-.107-3.474 0Z"/><path fill="#0D0D0C" d="M233.932 214.791s-1.943 1.976-2.803 2.238c-4.253 1.344-10.416-.222-16.349 2.802 0 0 7.338-1.021 9.515 13.998 0 0 13.218 2.574 26.437 1.794 13.218-.779 4.818-20.832 4.818-20.832h-21.618Z"/><path fill="#000" d="M233.932 214.791s-1.943 1.976-2.803 2.238c-4.253 1.344-10.416-.222-16.349 2.802 0 0 7.338-1.021 9.515 13.998 0 0 13.218 2.574 26.437 1.794 13.218-.779 4.818-20.832 4.818-20.832h-21.618Z" opacity=".5"/><path fill="#4173CA" d="M212.542 220.671c1.394.089 2.753.471 3.989 1.122 1.236.651 2.32 1.556 3.181 2.655 3.084 3.817 3.978 9.804 3.978 9.804l2.13.39s.545-5.033-3.306-10.638c-3.85-5.604-7.056-5.154-7.056-5.154l-2.916 1.821ZM211.319 272.207c-.62.057-1.239-.115-1.741-.484-.062-.09-.095-.196-.095-.306 0-.109.033-.215.095-.305.103-.162.264-.278.451-.323.994-.255 3.044.968 3.138 1.022.024.014.043.037.054.064.011.026.013.056.006.083-.004.028-.018.054-.038.074-.021.019-.048.031-.076.034-.593.099-1.193.147-1.794.141Zm-.928-1.169c-.089-.014-.179-.014-.268 0-.059.009-.115.031-.164.064-.049.034-.09.079-.119.131-.107.168-.067.255-.033.302.269.397 1.767.43 2.876.309-.706-.411-1.484-.684-2.292-.806Z"/><path fill="#4173CA" d="M213.113 272.066c-.009.005-.02.007-.03.007-.011 0-.021-.002-.031-.007-.672-.323-2.11-1.64-1.968-2.305 0-.161.141-.349.53-.383.141-.013.282.003.417.047.134.044.257.115.363.208.746.632.874 2.238.88 2.312.001.024-.005.048-.017.07-.011.021-.029.039-.05.051-.015.007-.031.01-.047.01s-.032-.003-.047-.01Zm-1.411-2.426h-.081c-.255 0-.269.121-.282.155-.04.403.873 1.424 1.606 1.874-.059-.674-.324-1.315-.759-1.834-.135-.116-.306-.181-.484-.182v-.013Z"/><path fill="#0D0D0C" d="m213.758 271.246 6.478.114c.119.002.234.045.325.12.092.076.155.181.179.297l1.075 5.289c.025.111.027.227.006.339-.02.113-.063.22-.126.316-.062.096-.143.178-.238.242s-.201.108-.314.131c-.06.006-.121.006-.181 0-2.339-.081-4.415-.242-7.318-.289-3.434-.061-2.567.369-6.606.356-2.432 0-2.829-2.782-1.794-2.896 4.704-.518 5.242-1.929 7.09-3.589.407-.31.913-.463 1.424-.43Z"/><path fill="#EEC1BB" d="M235.168 222.741s-11.088.558-10.859 5.154c.228 4.597 4.811 44.124 4.811 44.124h6.162s4.254-30.576 2.352-36.06h8.179l-7.171-13.218h-3.474Z"/><path fill="#0D0D0C" d="M264.508 214.791s1.848 20.328-12.096 21.672c-13.944 1.344-12.264 0-12.264 0s-3.119-10.671-13.044-12.687c0 0 9.643-2.574 11.518-5.443.39-.605 1.176-2.184 1.176-2.184l24.71-1.358Z"/><path fill="#4173CA" d="M224.974 224.643s11.504 4.704 14.334 12.412l2.936.376s-2.15-9.986-14.36-14.468l-2.91 1.68ZM226.943 272.207c-.62.057-1.239-.115-1.741-.484-.062-.09-.095-.196-.095-.306 0-.109.033-.215.095-.305.103-.162.264-.278.451-.323.994-.255 3.044.968 3.138 1.022.024.014.044.037.054.064.011.026.013.056.006.083-.004.028-.018.054-.038.074-.021.019-.048.031-.076.034-.593.099-1.193.147-1.794.141Zm-.928-1.169c-.089-.014-.179-.014-.268 0-.059.009-.115.031-.164.064-.049.034-.09.079-.119.131-.107.168-.067.255-.033.302.269.397 1.767.43 2.876.309-.706-.411-1.484-.684-2.292-.806Z"/><path fill="#4173CA" d="M228.737 272.066c-.009.005-.02.007-.03.007-.011 0-.021-.002-.03-.007-.672-.323-2.111-1.64-1.969-2.305 0-.161.141-.349.53-.383.141-.013.283.003.417.047s.257.115.363.208c.746.632.874 2.238.88 2.312.001.024-.005.048-.017.07-.011.021-.029.039-.05.051-.015.007-.031.01-.047.01s-.032-.003-.047-.01Zm-1.411-2.426h-.081c-.255 0-.269.121-.282.155-.04.403.874 1.424 1.606 1.874-.059-.674-.324-1.315-.759-1.834-.135-.116-.306-.181-.484-.182v-.013Z"/><path fill="#0D0D0C" d="m229.382 271.246 6.478.114c.119.002.234.045.325.12.092.076.155.181.179.297l1.075 5.289c.025.111.027.227.006.339-.02.113-.063.22-.126.316-.062.096-.143.178-.238.242s-.201.108-.314.131c-.06.006-.121.006-.181 0-2.339-.081-4.415-.242-7.318-.289-3.434-.061-2.567.369-6.606.356-2.433 0-2.829-2.782-1.794-2.896 4.704-.518 5.241-1.929 7.089-3.589.408-.31.914-.463 1.425-.43Z"/><path fill="#EEC1BB" d="M228.636 194.618s-4.986 6.72-8.682 6.27c-3.696-.451-11.222-14.213-11.222-14.213l-4.913-3.757c-.24-.182-.424-.428-.531-.709-.107-.282-.132-.588-.073-.883l.92-4.671c.066-.34.241-.651.498-.884.256-.234.581-.379.927-.413l.988-.094c.365-.036.732.053 1.04.253.308.201.539.5.653.849l2.507 7.621 8.803 8.205 4.186-4.032 4.899 6.458Z"/><path fill="#0D0D0C" d="m228.105 182.065-7.721 8.151c2.417 2.196 4.494 4.74 6.162 7.547 0 0 7.56-4.59 9.267-9.294.887-2.439-.114-5.705-1.928-6.989-.873-.614-1.938-.892-2.999-.785-1.062.107-2.049.594-2.781 1.37Z"/><path fill="#4173CA" d="M229.06 180.855s9.045 16.908 3.864 34.776c10.494 2.747 21.488 2.978 32.088.672 0 0 .201-6.807.47-19.165.235-10.631-.269-22.25-7.526-25.187-14.112-5.712-28.896 8.904-28.896 8.904Z"/><path fill="#EEC1BB" d="M264.172 185.895s2.13 14.556-4.032 15.228c-6.163.672-16.464-.894-16.464-.894l-5.712-1.162c-.272-.056-.523-.183-.729-.369-.205-.185-.358-.422-.441-.687l-.954-3.178c-.121-.381-.087-.793.094-1.149l.39-.793c.103-.208.252-.391.435-.534.184-.143.397-.243.624-.292.227-.05.462-.048.688.005.226.054.438.157.618.303l5.692 4.61 12.654-2.352-2.238-6.72 9.375-2.016ZM247.163 170.99c-3.151-.369-4.495-6.82-4.495-6.82l-5.907 4.838 1.31 5.329s-2.285 7.607 4.267 5.927c6.552-1.68 4.825-9.274 4.825-9.274Z"/><path fill="#000" d="m242.392 166.125-1.277-.672-4.354 3.568.9 3.663c3.367.618 4.731-6.559 4.731-6.559Z" opacity=".1"/><path fill="#0D0D0C" d="M254.071 172.032c3.616-2.554 10.242 1.875 11.142 15.201 0 0-4.818-.444-10.422 2.956 0 .027-5.511-14.73-.72-18.157Z"/><path fill="#EEC1BB" d="M244.193 158.001c-.948 5.638-1.223 8.984-4.402 11.585-4.771 3.924-11.498.564-12.243-5.228-.672-5.249 1.001-13.561 6.793-15.228 1.275-.373 2.625-.414 3.92-.119 1.296.295 2.494.917 3.481 1.806.987.889 1.731 2.016 2.16 3.273.429 1.257.529 2.604.291 3.911Z"/><path fill="#2E353A" d="M235.168 158.693c-.047.47-.329.82-.632.786-.302-.034-.504-.437-.457-.9.047-.464.336-.807.672-.773.336.033.417.43.417.887ZM232.635 165.063c-.041.464-.33.813-.632.78-.302-.034-.511-.437-.457-.901.054-.463.329-.806.632-.772.302.033.51.47.457.893ZM229.926 158.142c-.053.457-.336.806-.638.773-.302-.034-.504-.431-.45-.887.054-.457.329-.814.631-.78.303.034.504.43.457.894Z"/><path fill="#D4827D" d="M231.842 158.525c-.701 1.352-1.585 2.6-2.628 3.709.29.263.634.459 1.008.575.374.116.768.149 1.156.097l.464-4.381Z"/><path fill="#2E353A" d="M237.184 156.724c.045.007.09.007.134 0 .061-.039.105-.1.122-.17.018-.07.008-.144-.027-.207-.219-.372-.522-.688-.885-.921-.363-.234-.776-.378-1.205-.423-.073 0-.144.03-.195.081-.052.052-.081.122-.081.195 0 .073.029.143.081.195.051.051.122.081.195.081.34.036.667.154.952.344.286.189.521.445.687.744.029.029.064.051.102.065.039.014.079.019.12.016ZM228.119 155.817c.046 0 .091-.011.131-.034.04-.022.074-.055.097-.094.171-.294.408-.543.693-.727.285-.185.609-.299.947-.335.036 0 .071-.007.104-.021.033-.014.063-.034.088-.06.025-.026.045-.056.058-.089.013-.034.02-.069.019-.105 0-.036-.007-.072-.021-.105-.014-.033-.035-.063-.06-.088-.026-.025-.057-.045-.09-.058-.033-.013-.069-.019-.105-.018-.435.035-.856.176-1.225.41-.368.234-.675.555-.892.934-.019.029-.033.062-.04.097-.006.035-.006.07.002.105.007.034.022.067.042.096.021.029.047.053.077.071.054.029.116.036.175.021Z"/><path fill="#0D0D0C" d="M242.701 161.28s-2.795-1.29-1.68-6.666c0 0-5.168 1.344-5.154-2.52 0 0-5.235 1.303-4.852-.887 0 0-3.192.551-2.93-1.855.336-2.99 3.81-.786 4.704-1.122 0 0-.672-2.184 1.257-2.796 2.856-.9 2.721 2.238 5.02 2.46 2.298.222 5.248-.336 5.255 2.184 0 0 3.36.726 3.051 4.032-.31 3.306 3.729 4.2 2.278 6.216-1.452 2.016-2.856-.249-2.856-.249s.954 3.723-1.291 4.953c-2.244 1.23-.544 2.802-1.646 2.298-1.102-.504-2.13-4.583-1.156-6.048Z"/><path fill="#EEC1BB" d="M246.404 163.592c-.897 1.12-2.198 1.844-3.622 2.016-1.895.201-2.534-1.559-1.747-3.186.672-1.465 2.54-3.36 4.314-2.795 1.774.564 2.137 2.56 1.055 3.965Z"/><path fill="#0D0D0C" d="M243.857 150.73s3.763-.094 2.285-2.48c-1.479-2.386-2.285 2.48-2.285 2.48Z"/><path fill="#4173CA" d="m197.691 167.758.893.894-2.016 2.016 8.36 8.38 2.016-2.016.78.779c.281.281.614.503.981.655.367.152.761.23 1.158.229.397 0 .79-.079 1.157-.231.367-.152.7-.375.981-.656.28-.281.503-.615.655-.982.151-.367.229-.76.229-1.158 0-.397-.079-.79-.231-1.157-.152-.367-.375-.7-.657-.98l-.772-.827 2.016-2.016-2.016-2.016-.921.874c-.568.567-1.338.886-2.14.886-.803 0-1.573-.319-2.141-.886-.567-.568-.886-1.338-.886-2.141 0-.803.319-1.572.886-2.14l.921-.894-2.016-2.016-2.016 2.016-.894-.894c-.281-.281-.614-.504-.982-.656-.367-.152-.761-.23-1.158-.23-.398 0-.791.078-1.158.23-.368.152-.701.375-.982.656s-.504.615-.656.982c-.153.368-.231.761-.231 1.159 0 .397.078.791.231 1.158.152.367.375.701.656.982h-.047Z"/><path fill="#000" d="m197.691 167.758.893.894-2.016 2.016 8.36 8.38 2.016-2.016.78.779c.281.281.614.503.981.655.367.152.761.23 1.158.229.397 0 .79-.079 1.157-.231.367-.152.7-.375.981-.656.28-.281.503-.615.655-.982.151-.367.229-.76.229-1.158 0-.397-.079-.79-.231-1.157-.152-.367-.375-.7-.657-.98l-.772-.827 2.016-2.016-2.016-2.016-.921.874c-.568.567-1.338.886-2.14.886-.803 0-1.573-.319-2.141-.886-.567-.568-.886-1.338-.886-2.141 0-.803.319-1.572.886-2.14l.921-.894-2.016-2.016-2.016 2.016-.894-.894c-.281-.281-.614-.504-.982-.656-.367-.152-.761-.23-1.158-.23-.398 0-.791.078-1.158.23-.368.152-.701.375-.982.656s-.504.615-.656.982c-.153.368-.231.761-.231 1.159 0 .397.078.791.231 1.158.152.367.375.701.656.982h-.047Z" opacity=".3"/><path fill="#4173CA" d="M206.205 268.027c-3.15.053-6.279-.521-9.205-1.69s-5.59-2.909-7.836-5.118c-2.246-2.209-4.031-4.843-5.248-7.748-1.218-2.906-1.846-6.025-1.846-9.175 0-3.151.628-6.27 1.846-9.176 1.217-2.905 3.002-5.539 5.248-7.748 2.246-2.209 4.91-3.949 7.836-5.118 2.926-1.169 6.055-1.743 9.205-1.69h23.728V210.41h-58.054l3.118 67.798h54.936v-10.181h-23.728Z"/><path fill="#fff" d="M206.205 268.027c-3.15.053-6.279-.521-9.205-1.69s-5.59-2.909-7.836-5.118c-2.246-2.209-4.031-4.843-5.248-7.748-1.218-2.906-1.846-6.025-1.846-9.175 0-3.151.628-6.27 1.846-9.176 1.217-2.905 3.002-5.539 5.248-7.748 2.246-2.209 4.91-3.949 7.836-5.118 2.926-1.169 6.055-1.743 9.205-1.69h23.728V210.41h-58.054l3.118 67.798h54.936v-10.181h-23.728Z" opacity=".5"/><path fill="#4173CA" d="M174.997 278.181h-34.332l-3.125-67.771h34.339l3.118 67.771Z"/><path fill="#fff" d="M174.997 278.181h-34.332l-3.125-67.771h34.339l3.118 67.771Z" opacity=".3"/><path fill="#4173CA" d="M172.921 206.727h-38.499v3.69h38.499v-3.69Z"/><path fill="#fff" d="M172.921 206.727h-38.499v3.69h38.499v-3.69Z" opacity=".1"/><path fill="#4173CA" d="M233.058 206.727h-60.137v3.69h60.137v-3.69Z"/><path fill="#fff" d="M233.058 206.727h-60.137v3.69h60.137v-3.69Z" opacity=".3"/><path fill="#4173CA" d="M169.52 203.784h1.291v2.943h12.042v-2.943h1.122c.818 0 1.603-.325 2.181-.903.578-.579.903-1.363.903-2.181 0-.818-.325-1.603-.903-2.181-.578-.579-1.363-.904-2.181-.904h-1.122v-2.937h-2.937v1.291c0 .818-.325 1.602-.903 2.181-.579.578-1.363.903-2.181.903-.818 0-1.603-.325-2.181-.903-.579-.579-.904-1.363-.904-2.181v-1.291h-2.936v2.937h-1.291c-.818 0-1.602.325-2.181.904-.578.578-.903 1.363-.903 2.181 0 .818.325 1.602.903 2.181.579.578 1.363.903 2.181.903Z"/><path fill="#fff" d="M169.52 203.784h1.291v2.943h12.042v-2.943h1.122c.818 0 1.603-.325 2.181-.903.578-.579.903-1.363.903-2.181 0-.818-.325-1.603-.903-2.181-.578-.579-1.363-.904-2.181-.904h-1.122v-2.937h-2.937v1.291c0 .818-.325 1.602-.903 2.181-.579.578-1.363.903-2.181.903-.818 0-1.603-.325-2.181-.903-.579-.579-.904-1.363-.904-2.181v-1.291h-2.936v2.937h-1.291c-.818 0-1.602.325-2.181.904-.578.578-.903 1.363-.903 2.181 0 .818.325 1.602.903 2.181.579.578 1.363.903 2.181.903Z" opacity=".5"/><path fill="#4173CA" d="M191.038 203.784h-1.29v2.943h12.049v-2.943h1.115c.818 0 1.603-.325 2.181-.903.579-.579.904-1.363.904-2.181 0-.819-.325-1.603-.904-2.182-.578-.578-1.363-.903-2.181-.903h-1.115v-2.937h-2.917v-1.29c0-.818-.325-1.602-.903-2.181-.579-.578-1.363-.903-2.181-.903-.818 0-1.603.325-2.182.903-.578.579-.903 1.363-.903 2.181v1.29h-2.937v2.937h1.291c.818 0 1.602.325 2.181.903.578.579.903 1.363.903 2.182 0 .818-.325 1.602-.903 2.181-.579.578-1.363.903-2.181.903h-.027ZM160.247 197.615h1.29v-2.937h-12.049v2.937h-1.122c-.818 0-1.603.325-2.181.904-.579.578-.904 1.363-.904 2.181 0 .818.325 1.602.904 2.181.578.578 1.363.903 2.181.903h1.122v2.943h12.049v-2.943h-1.29c-.818 0-1.603-.325-2.181-.903-.579-.579-.904-1.363-.904-2.181 0-.818.325-1.603.904-2.181.578-.579 1.363-.904 2.181-.904Z"/><path fill="#000" d="M160.247 197.615h1.29v-2.937h-12.049v2.937h-1.122c-.818 0-1.603.325-2.181.904-.579.578-.904 1.363-.904 2.181 0 .818.325 1.602.904 2.181.578.578 1.363.903 2.181.903h1.122v2.943h12.049v-2.943h-1.29c-.818 0-1.603-.325-2.181-.903-.579-.579-.904-1.363-.904-2.181 0-.818.325-1.603.904-2.181.578-.579 1.363-.904 2.181-.904Z" opacity=".3"/><path fill="#B97964" d="m104.807 260.776 1.055 12.063h5.476l.558-12.063h-7.089Z"/><path fill="#4173CA" d="M112.031 272.409c-.027-.005-.051-.018-.071-.037-.019-.02-.032-.044-.037-.071-.006-.027-.004-.055.007-.081.011-.025.03-.046.054-.06.087-.054 2.069-1.23 3.03-.988.181.045.338.158.437.316.061.087.093.19.093.296 0 .105-.032.209-.093.295-.485.354-1.082.518-1.68.464-.583.005-1.165-.04-1.74-.134Zm.437-.189c1.075.115 2.52.081 2.782-.302 0-.04.067-.128-.034-.296-.028-.048-.067-.089-.114-.121-.046-.031-.099-.052-.155-.06-.085-.024-.173-.036-.262-.034-.784.128-1.537.404-2.217.813Z"/><path fill="#4173CA" d="M111.964 272.402c-.022-.012-.039-.03-.051-.051-.012-.022-.018-.046-.017-.07 0-.074.135-1.62.854-2.238.102-.089.222-.157.351-.199.129-.041.266-.056.401-.043.377 0 .498.215.511.37.135.672-1.223 1.915-1.902 2.231h-.06c-.028.01-.059.01-.087 0Zm1.451-2.345c-.171.005-.335.069-.464.181-.422.501-.678 1.121-.732 1.774.705-.437 1.593-1.424 1.552-1.814 0-.034 0-.128-.275-.148l-.081.007Z"/><path fill="#0D0D0C" d="m111.433 271.616-6.263.107c-.115.002-.225.044-.313.117-.088.073-.148.174-.171.286l-1.049 5.114c-.022.11-.022.223-.001.332.022.11.066.214.128.307.063.092.143.172.237.233.094.061.198.103.308.123h.182c2.258-.081 4.26-.242 7.069-.282 3.32-.054 2.487.356 6.384.342 2.352 0 2.735-2.688 1.741-2.802-4.57-.497-5.067-1.861-6.855-3.467-.4-.304-.897-.449-1.397-.41Z"/><path fill="#4173CA" d="m121.224 155.534-8.958 109.718H104.8s-4.079-28.708-2.157-52.228c.101-1.223.215-2.426.349-3.615.198-1.737.198-3.491 0-5.228-.114-1.022-.255-2.292-.41-3.744-.86-7.99-2.143-21.322-1.888-27.377 0 0-3.7968-8.588-.7795-20.529h21.3025l.007 3.003Z"/><path fill="#4173CA" d="m103.745 263.202.316 2.05-.686 1.68h9.455l-.248-1.68.806-2.05h-9.643Z"/><path fill="#fff" d="m103.745 263.202.316 2.05-.686 1.68h9.455l-.248-1.68.806-2.05h-9.643Z" opacity=".5"/><path fill="#000" d="m105.956 161.791-5.941 9.293c.185.685.41 1.358.672 2.016-.188 4.469.464 12.56 1.163 19.542 6.659-18.735 8.124-30.824 8.124-30.824l-4.018-.027Z" opacity=".1"/><path fill="#B97964" d="m72.9001 260.461-4.2604 12.378h-4.6973l1.6128-12.748 7.3449.37Z"/><path fill="#4173CA" d="M70.1383 272.409c-.027-.006-.0517-.02-.0718-.039-.0201-.018-.0348-.042-.0425-.069-.0039-.027.0003-.055.0123-.081.0119-.025.0311-.046.0549-.06.0874-.054 2.0698-1.23 3.0307-.988.1811.045.3377.158.4368.316.0596.087.0914.19.0914.296 0 .105-.0318.208-.0914.295-.4851.354-1.0823.518-1.68.464-.5829.005-1.1651-.04-1.7404-.134Zm.4368-.189c1.0684.115 2.52.081 2.7753-.302.0403-.04.0739-.128 0-.296-.0291-.049-.0691-.091-.1168-.122-.0477-.032-.102-.052-.1587-.059-.0828-.025-.169-.036-.2554-.034-.7936.124-1.5558.4-2.2444.813Z"/><path fill="#4173CA" d="M70.0642 272.402c-.0194-.014-.0351-.032-.0456-.053-.0106-.021-.0157-.044-.0148-.068 0-.074.1344-1.62.8534-2.238.1022-.089.2218-.157.3512-.199.1295-.041.2661-.056.4014-.043.3764 0 .4973.215.5108.37.1344.672-1.2231 1.915-1.9018 2.231h-.0605c-.0306.01-.0635.01-.0941 0Zm1.4583-2.345c-.1711.004-.3354.068-.4637.181-.4223.501-.6783 1.121-.7325 1.774.672-.437 1.5927-1.424 1.5456-1.814 0-.034 0-.128-.2688-.148l-.0806.007Z"/><path fill="#0D0D0C" d="m69.5401 271.616-6.263.107c-.1145.002-.2247.044-.3127.117-.0879.073-.1483.174-.1712.286l-1.0483 5.114c-.0224.11-.0227.223-.0009.332.0218.11.0653.214.1279.307.0626.092.143.172.2366.233.0936.061.1985.103.3084.123h.1815c2.2512-.081 4.2604-.242 7.0694-.282 3.3197-.054 2.4864.356 6.384.342 2.352 0 2.735-2.688 1.7338-2.802-4.5696-.497-5.0669-1.861-6.8544-3.467-.3968-.305-.8926-.451-1.3911-.41Z"/><path fill="#4173CA" d="M113.388 152.544 71.9661 265.252H64.48s1.8883-28.58 11.2896-50.595c.4569-1.055.9206-2.097 1.4112-3.125 1.0434-2.223 1.7673-4.583 2.1504-7.009.0806-.537.1814-1.115.2822-1.734 1.344-7.943 4.9863-21.913 6.169-29.715.8064-5.289 0-10.45 5.9741-20.53h21.6315Z"/><path fill="#4173CA" d="m63.2569 263.202.3092 2.05-.6855 1.68h9.4551l.4972-1.68.8132-2.05H63.2569Z"/><path fill="#fff" d="m63.2569 263.202.3092 2.05-.6855 1.68h9.4551l.4972-1.68.8132-2.05H63.2569Z" opacity=".5"/><path fill="#0D0D0C" d="M99.7533 88.5427c-2.5267 1.9421-2.688 5.8061-2.6477 8.0976.0403 2.2916.1815 0-1.2029 4.0317-1.3843 4.032 3.6692 7.681 5.6713 7.439 6.048-.746 9.059.175 13.057 1.109 3.999.934 8.683-3.635 8.165-8.272-.591-5.2955-2.513-7.6206-1.162-9.3208 1.35-1.7001 4.106-7.6944-.766-8.9241-4.268-1.0685-1.895-3.5684-8.34-3.6356-5.793-.0336-12.432 1.2231-12.7747 9.4752Z"/><path fill="#B97964" d="M105.472 99.2275c.39 3.5755.524 10.0805-2.144 12.2035 2.588 2.398 5.477 4.45 8.595 6.102 4.187-2.89 2.325-5.154 2.325-5.154-3.83-1.304-3.481-4.18-2.6-6.848l-6.176-6.3035Z"/><path fill="#000" d="m107.979 101.828 3.675 3.73c-.222.62-.39 1.259-.504 1.908-1.471-.349-3.615-1.881-3.635-3.467.026-.745.183-1.48.464-2.171Z" opacity=".2"/><path fill="#B97964" d="M102.3 93.6701c1.499 5.712 2.016 8.1579 5.504 10.5499 5.268 3.596 11.955.518 12.197-5.5234.221-5.4364-2.252-13.8499-8.36-15.0393-1.345-.2643-2.735-.1815-4.038.2405-1.304.422-2.479 1.1693-3.414 2.1713-.934 1.0021-1.599 2.2258-1.929 3.5557-.331 1.33-.317 2.7222.04 4.0453Z"/><path fill="#EBB376" d="M101.836 98.5085c.264.4998.623.9428 1.058 1.3037.435.3608.936.6328 1.476.7998 1.445.437 2.204-.8469 1.821-2.2312-.336-1.2432-1.499-2.9702-2.963-2.8022-.254.037-.497.1236-.717.2547-.22.1312-.412.3043-.565.5097-.153.2053-.264.4387-.326.6869-.063.2482-.076.5063-.039.7596.034.2548.121.4997.255.719Z"/><path fill="#0D0D0C" d="M104.995 82.2058c-1.022 1.7539 1.525 4.9996 6.874 4.704 4.032-.2352 9.093 4.0992 8.683-.5847-.343-4.2739-10.484-6.3168-15.557-4.1193Z"/><path fill="#A24E3F" d="M115.868 95.1418c.629.9965 1.394 1.9011 2.271 2.688-.203.2235-.453.3997-.731.5158-.279.1161-.58.1695-.882.1562l-.658-3.36Z"/><path fill="#0D0D0C" d="M109.202 93.193c-.04.0094-.082.0094-.121 0-.053-.0333-.09-.0853-.105-.1452-.015-.06-.006-.1235.024-.1774.22-.3762.528-.6944.896-.9281.368-.2338.786-.3763 1.221-.4159.061 0 .12.0239.164.0665.044.0427.069.1008.071.162.002.03-.002.0601-.012.0885-.01.0284-.025.0546-.045.0771-.02.0225-.045.0408-.072.0539-.027.0131-.056.0207-.086.0224-.361.0392-.707.1638-1.01.3637-.302.1999-.553.4692-.731.7855-.026.0221-.058.0378-.092.046-.033.0081-.069.0085-.102.001ZM119.187 91.3114c-.037.0097-.076.0097-.114 0-.311-.1831-.661-.2907-1.022-.314-.361-.0234-.722.0381-1.054.1796-.055.0288-.118.0351-.177.0175-.059-.0176-.109-.0576-.139-.1116-.028-.0571-.033-.123-.013-.1833.021-.0604.064-.1104.12-.1392.401-.1785.839-.2587 1.277-.2342.439.0246.865.1532 1.243.3753.048.0248.086.0651.107.1144.022.0492.026.1043.012.1561-.014.0518-.046.0973-.089.1287-.044.0315-.097.0471-.151.0443v-.0336Z"/><path fill="#B97964" d="m150.805 112.708 3.259-3.642 5.511-1.68 3.615-1.68c.161-.075.339-.105.516-.088.177.016.346.079.49.182.145.103.26.242.333.404.074.162.103.34.086.516l-.457 4.395c-.014.134-.055.264-.12.382s-.154.222-.259.305c-.106.083-.228.144-.358.18-.13.036-.265.045-.399.027l-6.532-.887-2.984 4.946-2.701-3.36Z"/><path fill="#0D0D0C" d="m121.748 111.646 17.015 11.229 12.694-11.995 4.106 3.044s-10.826 17.667-15.678 17.512c-4.852-.154-14.784-5.705-18.661-9.018-2.137-1.814-2.218-4.973-.988-10.167.036-.156.11-.3.214-.421s.236-.215.385-.275c.148-.059.308-.082.467-.066.159.016.312.07.446.157Z"/><path fill="#000" d="m122.548 114.159-2.084-1.008-1.008 3.911c-.127 2.46.397 4.18 1.768 5.376 4.151 3.237 8.748 5.858 13.648 7.782-8.373-4.677-12.324-16.061-12.324-16.061Z" opacity=".5"/><path fill="#0D0D0C" d="M90.6207 153.478h31.2283s.618-16.235 3.36-21.833c2.305-4.704-2.117-16.263-3.555-19.757-.123-.299-.334-.554-.605-.729-.272-.176-.591-.264-.914-.252l-27.552.907c-.1861.006-.3684.054-.5334.14-.1651.086-.3087.208-.4203.357-.1116.149-.1883.322-.2244.504-.0362.183-.0309.371.0155.551 1.1357 4.234 3.6355 17.593-.7997 40.112Z"/><path fill="#B97964" d="m83.5916 157.335.4368 6.223 3.8573 2.688v1.801l.1008.229c.1094.243.1601.508.1482.774-.012.266-.0864.526-.2172.758-.1308.232-.3144.43-.5358.579-.2215.148-.4747.242-.7392.274l-3.4541.43c-.2287.028-.4606.009-.6818-.055-.2212-.065-.427-.173-.6048-.32-.1779-.146-.3241-.327-.4298-.532-.1058-.205-.1688-.429-.1853-.659l-.3697-4.838-1.8009-7.338 4.4755-.014Z"/><path fill="#0D0D0C" d="m101.285 111.371.343-.82c.155-.398.155-.839 0-1.237l-.282-.766c-.052-.115-.071-.243-.053-.368.017-.126.07-.244.151-.341.081-.097.189-.169.309-.207.121-.039.25-.043.372-.011 2.85.531 9.899 1.687 11.673.45 1.626-1.129.894.464.37 1.418-.106.193-.152.413-.132.632.021.22.106.428.246.598l.947 1.149s1.015 2.574-13.44.443c-.101-.016-.198-.056-.282-.116-.084-.06-.153-.139-.202-.23-.049-.091-.076-.192-.079-.295-.004-.103.017-.205.059-.299Z"/><path fill="#000" d="m101.285 111.371.343-.82c.155-.398.155-.839 0-1.237l-.282-.766c-.052-.115-.071-.243-.053-.368.017-.126.07-.244.151-.341.081-.097.189-.169.309-.207.121-.039.25-.043.372-.011 2.85.531 9.899 1.687 11.673.45 1.626-1.129.894.464.37 1.418-.106.193-.152.413-.132.632.021.22.106.428.246.598l.947 1.149s1.015 2.574-13.44.443c-.101-.016-.198-.056-.282-.116-.084-.06-.153-.139-.202-.23-.049-.091-.076-.192-.079-.295-.004-.103.017-.205.059-.299Z" opacity=".2"/><path fill="#000" d="M93.0534 133.99c2.9031-10.281 1.344-15.456 1.344-15.456h-1.9488c.679 5.136.8837 10.323.6115 15.496l-.0067-.04Z" opacity=".5"/><path fill="#0D0D0C" d="M92.4822 112.896c-.0966-.125-.2208-.227-.363-.297-.1421-.07-.2984-.106-.4568-.106-.1584 0-.3147.036-.4568.106-.1422.07-.2664.172-.363.297-3.2525 4.22-15.3216 20.194-15.6442 25.469-.3763 6.095 4.6032 24.864 4.6032 24.864l4.4755-.995-.8198-23.52s7.6003-10.362 9.5827-13.91c1.4918-2.688 3.3398-6.687-.5578-11.908Z"/><path fill="#4173CA" d="M121.66 154.694H90.2175l.4099-2.19h31.2946l-.262 2.19Z"/><path fill="#4173CA" d="M106.332 154.694v-2.19H94.5385l-.4972 2.19h12.2907ZM114.94 152.504h-6.699v2.19h6.699v-2.19ZM92.7711 152.504h-2.1437l-.4099 2.19h2.1034l.4502-2.19ZM116.889 152.504v2.19h4.771l.263-2.19h-5.034Z"/><g opacity=".7"><path fill="#fff" d="M106.332 154.694v-2.19H94.5385l-.4972 2.19h12.2907ZM114.94 152.504h-6.699v2.19h6.699v-2.19ZM92.7711 152.504h-2.1437l-.4099 2.19h2.1034l.4502-2.19ZM116.889 152.504v2.19h4.771l.262-2.19h-5.033Z"/></g><path fill="#0D0D0C" d="M114.134 100.034c.275.005.55-.018.82-.0672.037-.0081.069-.0301.09-.0613.022-.0312.03-.0694.024-.1067-.006-.0369-.027-.0698-.057-.0923-.03-.0224-.067-.0327-.104-.0287-.595.1166-1.208.0923-1.792-.0711-.583-.1634-1.121-.4612-1.568-.8697-.028-.0205-.061-.0309-.096-.0293-.034.0017-.066.0151-.092.0382-.025.023-.042.0542-.047.0881-.005.0339.002.0685.02.0979.757.7154 1.761 1.1101 2.802 1.1021ZM113.24 93.8448c-.023-.002-.046.0005-.068.0074-.021.0069-.042.0181-.059.0329-.159.1461-.35.2531-.558.3126-.208.0595-.426.0698-.639.0301-.043-.0104-.089-.0037-.128.0189-.039.0225-.067.059-.08.1021-.012.0428-.007.0887.014.1278.022.0391.058.068.1.0805.267.0571.544.049.807-.0236.263-.0725.505-.2073.705-.393.017-.0157.03-.0345.038-.0553.009-.0208.014-.0431.014-.0657 0-.0226-.005-.0449-.014-.0657-.008-.0208-.021-.0396-.038-.0553-.024-.0282-.057-.0472-.094-.0537ZM118.683 93.5828c-.022-.002-.045.0005-.067.0074-.022.0069-.043.0181-.06.0329-.154.153-.342.2665-.55.3309-.207.0644-.426.0776-.64.0387-.021-.0058-.044-.0072-.066-.0042-.022.003-.044.0103-.063.0215-.019.0113-.036.0262-.05.044-.013.0177-.023.038-.029.0596-.006.0217-.007.0442-.004.0664.003.0221.01.0435.021.0629.012.0193.027.0362.044.0498.018.0136.038.0235.06.0293.267.0518.543.0386.804-.0386.26-.0772.499-.2161.695-.405.016-.015.028-.0333.037-.0535.009-.0202.013-.042.013-.0641 0-.022-.004-.0438-.013-.064-.009-.0203-.021-.0385-.037-.0536-.025-.0292-.058-.0503-.095-.0604ZM108.254 84.9072c1.614 1.3098 3.429 2.3492 5.376 3.0778.054.0186.099.0554.128.1041.029.0486.041.1059.032.162-.009.056-.037.1072-.08.1445-.043.0374-.097.0585-.154.0598-2.11.0403-5.53-.3763-5.302-3.5482Z"/><path fill="#4173CA" d="M118.596 91.7011c-1.592.1546-2.446.8669-2.453 2.016l-.51.0538c-.04-.2692-.145-.5248-.306-.7448-.16-.22-.371-.3979-.615-.5186-.588-.2521-1.235-.3359-1.868-.2419-.641.0297-1.262.2342-1.794.5914-.134.106-.251.2305-.35.3696l-5.571 4.2134.296.3898s4.946-3.4608 4.966-3.2995c.071.6536.378 1.2587.865 1.7008.487.4421 1.119.6905 1.776.6982.087.0067.175.0067.262 0 .659-.0608 1.27-.368 1.713-.86.442-.4921.682-1.1329.673-1.7944l.51-.0538c.12.6041.444 1.1485.918 1.5424.473.3939 1.067.6133 1.683.6215h.255c.7-.0748 1.342-.4206 1.789-.9633.447-.5427.664-1.2391.604-1.9398-.128-1.3305-1.136-1.9488-2.843-1.7808Zm-3.884 3.938c-.18.2213-.402.4043-.653.5382-.252.1339-.528.216-.812.2413-.284.0278-.57-.0005-.843-.0834s-.526-.2187-.747-.3996c-.22-.181-.402-.4036-.537-.6551-.134-.2515-.217-.527-.245-.8107-.041-.229-.018-.4648.066-.6817.084-.2169.226-.4064.411-.5481.449-.302.972-.4762 1.512-.504h.491c.381-.0136.76.06 1.108.2151.208.1052.382.2643.507.4607.124.1963.193.4225.199.6548.059.5637-.105 1.1281-.457 1.5725Zm5.752-.5578c-.18.2208-.402.4034-.654.5373-.251.1338-.527.2162-.811.2422-.283.0279-.57-.0005-.843-.0834-.272-.0828-.526-.2186-.746-.3996-.221-.181-.403-.4036-.537-.6551-.135-.2515-.218-.5269-.246-.8107 0-.3763-.148-1.5187 2.016-1.727.164-.0095.327-.0095.491 0 .383-.0128.764.0607 1.115.215.201.1102.368.2714.486.4673.118.1959.183.4196.186.6482.057.5615-.107 1.1228-.457 1.5658Z"/><path fill="#0D0D0C" d="M107.925 83.496c2.789 2.137.934 6.048-.41 7.7885s-3.421 3.4003-1.815 5.9942c1.607 2.5939 2.688 9.7443-2.419 8.4943-5.1069-1.25-4.8784-9.7912-3.3933-13.7359 1.4853-3.9446 4.7103-11.0813 8.0373-8.5411Z"/><path fill="#4173CA" d="M167.188 100.323h-1.236v-3.5147h-2.816v.5377c0 .7824-.311 1.5327-.864 2.086-.553.5532-1.303.864-2.086.864-.782 0-1.533-.3108-2.086-.864-.553-.5533-.864-1.3036-.864-2.086v-.5377h-2.816v3.5147h-1.068c-.782 0-1.533.311-2.086.864-.553.553-.864 1.304-.864 2.086 0 .782.311 1.533.864 2.086.553.553 1.304.864 2.086.864h1.068v3.515h2.796v-.538c0-.782.311-1.533.864-2.086.553-.553 1.304-.864 2.086-.864.782 0 1.533.311 2.086.864.553.553.864 1.304.864 2.086v.538h2.836v-3.515h1.236c.783 0 1.533-.311 2.086-.864.554-.553.864-1.304.864-2.086 0-.782-.31-1.533-.864-2.086-.553-.553-1.303-.864-2.086-.864Z"/><path fill="#000" d="M167.188 100.323h-1.236v-3.5147h-2.816v.5377c0 .7824-.311 1.5327-.864 2.086-.553.5532-1.303.864-2.086.864-.782 0-1.533-.3108-2.086-.864-.553-.5533-.864-1.3036-.864-2.086v-.5377h-2.816v3.5147h-1.068c-.782 0-1.533.311-2.086.864-.553.553-.864 1.304-.864 2.086 0 .782.311 1.533.864 2.086.553.553 1.304.864 2.086.864h1.068v3.515h2.796v-.538c0-.782.311-1.533.864-2.086.553-.553 1.304-.864 2.086-.864.782 0 1.533.311 2.086.864.553.553.864 1.304.864 2.086v.538h2.836v-3.515h1.236c.783 0 1.533-.311 2.086-.864.554-.553.864-1.304.864-2.086 0-.782-.31-1.533-.864-2.086-.553-.553-1.303-.864-2.086-.864Z" opacity=".4"/></g></g><defs><filter id="b" width="344" height="344" x="0" y="0" color-interpolation-filters="sRGB" filterUnits="userSpaceOnUse"><feFlood flood-opacity="0" result="BackgroundImageFix"/><feColorMatrix in="SourceAlpha" result="hardAlpha" values="0 0 0 0 0 0 0 0 0 0 0 0 0 0 0 0 0 0 127 0"/><feOffset dy="4"/><feGaussianBlur stdDeviation="2"/><feComposite in2="hardAlpha" operator="out"/><feColorMatrix values="0 0 0 0 0 0 0 0 0 0 0 0 0 0 0 0 0 0 0.25 0"/><feBlend in2="BackgroundImageFix" result="effect1_dropShadow_181_121"/><feBlend in="SourceGraphic" in2="effect1_dropShadow_181_121" result="shape"/></filter><filter id="c" width="344" height="344" x="0" y="0" color-interpolation-filters="sRGB" filterUnits="userSpaceOnUse"><feFlood flood-opacity="0" result="BackgroundImageFix"/><feColorMatrix in="SourceAlpha" result="hardAlpha" values="0 0 0 0 0 0 0 0 0 0 0 0 0 0 0 0 0 0 127 0"/><feOffset dy="4"/><feGaussianBlur stdDeviation="2"/><feComposite in2="hardAlpha" operator="out"/><feColorMatrix values="0 0 0 0 0 0 0 0 0 0 0 0 0 0 0 0 0 0 0.79 0"/><feBlend in2="BackgroundImageFix" result="effect1_dropShadow_181_121"/><feBlend in="SourceGraphic" in2="effect1_dropShadow_181_121" result="shape"/></filter><filter id="d" width="136.197" height="88.64" x="53.6323" y="176.151" color-interpolation-filters="sRGB" filterUnits="userSpaceOnUse"><feFlood flood-opacity="0" result="BackgroundImageFix"/><feColorMatrix in="SourceAlpha" result="hardAlpha" values="0 0 0 0 0 0 0 0 0 0 0 0 0 0 0 0 0 0 127 0"/><feOffset dy="4"/><feGaussianBlur stdDeviation="2"/><feComposite in2="hardAlpha" operator="out"/><feColorMatrix values="0 0 0 0 0 0 0 0 0 0 0 0 0 0 0 0 0 0 0.25 0"/><feBlend in2="BackgroundImageFix" result="effect1_dropShadow_181_121"/><feBlend in="SourceGraphic" in2="effect1_dropShadow_181_121" result="shape"/></filter><filter id="e" width="61.9347" height="66.4976" x="119.811" y="186.453" color-interpolation-filters="sRGB" filterUnits="userSpaceOnUse"><feFlood flood-opacity="0" result="BackgroundImageFix"/><feColorMatrix in="SourceAlpha" result="hardAlpha" values="0 0 0 0 0 0 0 0 0 0 0 0 0 0 0 0 0 0 127 0"/><feOffset dy="4"/><feGaussianBlur stdDeviation="2"/><feComposite in2="hardAlpha" operator="out"/><feColorMatrix values="0 0 0 0 0 0 0 0 0 0 0 0 0 0 0 0 0 0 0.25 0"/><feBlend in2="BackgroundImageFix" result="effect1_dropShadow_181_121"/><feBlend in="SourceGraphic" in2="effect1_dropShadow_181_121" result="shape"/></filter><filter id="f" width="301.557" height="25.1494" x="17.9827" y="269.512" color-interpolation-filters="sRGB" filterUnits="userSpaceOnUse"><feFlood flood-opacity="0" result="BackgroundImageFix"/><feColorMatrix in="SourceAlpha" result="hardAlpha" values="0 0 0 0 0 0 0 0 0 0 0 0 0 0 0 0 0 0 127 0"/><feOffset dy="4"/><feGaussianBlur stdDeviation="2"/><feComposite in2="hardAlpha" operator="out"/><feColorMatrix values="0 0 0 0 0 0 0 0 0 0 0 0 0 0 0 0 0 0 0.25 0"/><feBlend in2="BackgroundImageFix" result="effect1_dropShadow_181_121"/><feBlend in="SourceGraphic" in2="effect1_dropShadow_181_121" result="shape"/></filter><clipPath id="a"><path fill="#fff" d="M4 0h336v336H4z"/></clipPath></defs></svg>