<svg xmlns="http://www.w3.org/2000/svg" xmlns:xlink="http://www.w3.org/1999/xlink" width="500" zoomAndPan="magnify" viewBox="0 0 375 374.999991" height="500" preserveAspectRatio="xMidYMid meet" version="1.0"><defs><clipPath id="ebaf4850fd"><path d="M 187.5 0 C 83.945312 0 0 83.945312 0 187.5 C 0 291.054688 83.945312 375 187.5 375 C 291.054688 375 375 291.054688 375 187.5 C 375 83.945312 291.054688 0 187.5 0 Z M 187.5 0 " clip-rule="nonzero"/></clipPath><clipPath id="918711d7c1"><path d="M 167 45 L 341 45 L 341 330 L 167 330 Z M 167 45 " clip-rule="nonzero"/></clipPath><clipPath id="5b04791e85"><path d="M 34.046875 43.925781 L 340.316406 43.214844 L 340.984375 331.050781 L 34.714844 331.761719 Z M 34.046875 43.925781 " clip-rule="nonzero"/></clipPath><clipPath id="4bad147ca1"><path d="M 34.046875 43.917969 L 340.316406 43.207031 L 340.984375 331.042969 L 34.714844 331.753906 Z M 34.046875 43.917969 " clip-rule="nonzero"/></clipPath><clipPath id="021a57fed1"><path d="M 34 45 L 208 45 L 208 330 L 34 330 Z M 34 45 " clip-rule="nonzero"/></clipPath><clipPath id="d66be5475a"><path d="M 34.046875 43.925781 L 340.316406 43.214844 L 340.984375 331.050781 L 34.714844 331.761719 Z M 34.046875 43.925781 " clip-rule="nonzero"/></clipPath><clipPath id="8c7b2a956d"><path d="M 34.046875 43.917969 L 340.316406 43.207031 L 340.984375 331.042969 L 34.714844 331.753906 Z M 34.046875 43.917969 " clip-rule="nonzero"/></clipPath></defs><g clip-path="url(#ebaf4850fd)"><rect x="-37.5" width="450" fill="#ffffff" y="-37.499999" height="449.999989" fill-opacity="1"/></g><g clip-path="url(#918711d7c1)"><g clip-path="url(#5b04791e85)"><g clip-path="url(#4bad147ca1)"><path fill="#162c46" d="M 223.960938 158.742188 C 223.964844 158.742188 223.964844 158.742188 223.964844 158.742188 C 225.808594 158.738281 227.300781 160.222656 227.304688 162.066406 C 227.304688 162.082031 227.296875 162.085938 227.296875 162.101562 L 227.46875 235.265625 C 227.46875 235.28125 227.398438 202 227.398438 202.015625 L 227.558594 270.722656 C 227.625 300.828125 250.351562 327.109375 280.394531 329.054688 C 313.34375 331.1875 340.804688 304.945312 340.730469 272.460938 L 340.332031 101.894531 C 340.261719 71.238281 315.777344 45.769531 285.121094 45.445312 C 220.191406 44.777344 167.238281 97.472656 167.390625 162.207031 L 167.457031 191.453125 C 167.460938 192.140625 168.339844 192.347656 168.664062 191.746094 C 179.378906 172.160156 200.101562 158.804688 223.960938 158.742188 Z M 223.960938 158.742188 " fill-opacity="1" fill-rule="nonzero"/></g></g></g><g clip-path="url(#021a57fed1)"><g clip-path="url(#d66be5475a)"><g clip-path="url(#8c7b2a956d)"><path fill="#4173ca" d="M 147.703125 212.988281 L 147.566406 153.070312 L 147.453125 104.332031 C 147.382812 74.21875 124.652344 47.9375 94.601562 46 C 61.652344 43.875 34.203125 70.121094 34.28125 102.601562 L 34.675781 273.164062 C 34.746094 303.820312 59.234375 329.296875 89.890625 329.613281 C 154.816406 330.28125 207.769531 277.589844 207.621094 212.855469 L 207.550781 183.601562 C 207.550781 182.914062 206.675781 182.707031 206.34375 183.308594 C 195.617188 202.914062 174.851562 216.28125 150.964844 216.308594 C 149.167969 216.316406 147.707031 214.789062 147.703125 212.988281 Z M 147.703125 212.988281 " fill-opacity="1" fill-rule="nonzero"/></g></g></g><path fill="#ffffff" d="M 42.402344 102.589844 C 42.882812 91.425781 56.214844 83.117188 66.269531 88.570312 C 73.089844 91.527344 75.4375 99.078125 75.992188 105.898438 C 87.660156 105.265625 97.664062 115.390625 95.492188 127.238281 C 103.953125 127.871094 112.867188 133.375 113.296875 142.644531 C 113.5 155.296875 111.679688 167.925781 109.6875 180.402344 C 110.144531 186.1875 99.785156 186.695312 99.8125 180.804688 C 100.671875 168.074219 103.855469 155.449219 103.144531 142.617188 C 102.335938 138.5 97.867188 138.171875 94.535156 137.617188 C 92.992188 149.589844 93.195312 161.761719 91.351562 173.683594 C 90.972656 178.480469 82.359375 178.304688 81.855469 173.378906 C 82.234375 156.40625 84.609375 139.535156 85.136719 122.5625 C 86.074219 117.257812 79.179688 116.777344 75.617188 116.070312 C 75.238281 135.875 76.121094 155.699219 75.414062 175.449219 C 75.363281 180.628906 66.167969 180.957031 65.863281 175.675781 C 64.957031 152.070312 65.765625 128.402344 65.285156 104.761719 C 65.691406 101.378906 63.339844 98.699219 60.6875 97.035156 C 55.8125 96.054688 52.253906 100.621094 52.351562 105.09375 C 50.082031 134.460938 47.582031 163.835938 45.632812 193.234375 C 45.304688 218.871094 49.902344 247.054688 68.792969 265.949219 C 85.839844 283.878906 106.5 301.183594 111.148438 326.890625 C 112.261719 331.410156 105.46875 334.191406 102.6875 330.753906 C 98.34375 321.613281 96.246094 311.203125 89.605469 303.25 C 75.964844 285.949219 56.847656 272.964844 46.921875 252.839844 C 36.820312 231.21875 34.042969 206.695312 36.113281 183.082031 C 38.285156 156.261719 40.230469 129.414062 42.402344 102.589844 Z M 42.402344 102.589844 " fill-opacity="1" fill-rule="nonzero"/><path fill="#ffffff" d="M 71.925781 184.828125 C 78.949219 180.914062 88.621094 180.914062 94.578125 186.824219 C 105.894531 198.3125 115.265625 211.625 126.730469 222.992188 C 138.828125 234.382812 155.726562 243.21875 159.640625 260.773438 C 163.9375 281.910156 166.816406 303.355469 171.335938 324.46875 C 172.898438 327.980469 170.878906 332.324219 166.761719 332.300781 C 162.695312 332.351562 161.863281 328.160156 161.207031 325.050781 C 156.710938 304.898438 154.109375 284.339844 150.019531 264.109375 C 147.671875 251.835938 136.65625 244.738281 127.792969 237.234375 C 112.058594 225.164062 101.425781 208.015625 87.535156 194.097656 C 83.1875 189.578125 71.953125 193.289062 74.804688 200.511719 C 83.441406 218.875 95.589844 235.46875 104.707031 253.601562 C 106.296875 259.035156 97.660156 261.964844 95.460938 256.886719 C 85.886719 241.253906 76.796875 225.289062 67.554688 209.453125 C 62.636719 201.695312 63.265625 189.648438 71.925781 184.828125 Z M 71.925781 184.828125 " fill-opacity="1" fill-rule="nonzero"/><path fill="#ffffff" d="M 332.589844 272.402344 C 332.109375 283.566406 318.777344 291.878906 308.722656 286.421875 C 301.902344 283.464844 299.554688 275.914062 299 269.097656 C 287.332031 269.726562 277.328125 259.601562 279.5 247.753906 C 271.039062 247.125 262.125 241.617188 261.695312 232.347656 C 261.492188 219.695312 263.3125 207.066406 265.304688 194.589844 C 264.847656 188.804688 275.207031 188.296875 275.179688 194.1875 C 274.320312 206.917969 271.140625 219.542969 271.847656 232.375 C 272.65625 236.492188 277.125 236.820312 280.457031 237.375 C 282 225.402344 281.796875 213.230469 283.640625 201.3125 C 284.019531 196.515625 292.632812 196.6875 293.136719 201.613281 C 292.757812 218.585938 290.382812 235.457031 289.855469 252.429688 C 288.917969 257.734375 295.8125 258.214844 299.375 258.921875 C 299.753906 239.117188 298.871094 219.292969 299.578125 199.542969 C 299.628906 194.363281 308.824219 194.035156 309.128906 199.316406 C 310.035156 222.921875 309.226562 246.589844 309.707031 270.230469 C 309.300781 273.613281 311.652344 276.292969 314.304688 277.957031 C 319.179688 278.941406 322.738281 274.371094 322.640625 269.898438 C 324.910156 240.53125 327.410156 211.15625 329.359375 181.757812 C 329.6875 156.121094 325.089844 127.9375 306.199219 109.042969 C 289.152344 91.113281 268.492188 73.808594 263.84375 48.101562 C 262.730469 43.582031 269.523438 40.804688 272.304688 44.238281 C 276.648438 53.378906 278.746094 63.789062 285.386719 71.742188 C 299.027344 89.042969 318.144531 102.027344 328.070312 122.152344 C 338.171875 143.773438 340.949219 168.296875 338.878906 191.910156 C 336.707031 218.730469 334.761719 245.582031 332.589844 272.402344 Z M 332.589844 272.402344 " fill-opacity="1" fill-rule="nonzero"/><path fill="#ffffff" d="M 303.066406 190.167969 C 296.042969 194.078125 286.371094 194.078125 280.414062 188.171875 C 269.097656 176.679688 259.726562 163.367188 248.261719 152.003906 C 236.164062 140.609375 219.265625 131.773438 215.351562 114.21875 C 211.054688 93.082031 208.175781 71.636719 203.65625 50.523438 C 202.09375 47.011719 204.113281 42.667969 208.230469 42.691406 C 212.296875 42.640625 213.128906 46.832031 213.785156 49.941406 C 218.28125 70.097656 220.882812 90.652344 224.972656 110.882812 C 227.320312 123.15625 238.335938 130.253906 247.199219 137.757812 C 262.933594 149.828125 273.566406 166.976562 287.457031 180.894531 C 291.804688 185.414062 303.039062 181.703125 300.1875 174.480469 C 291.550781 156.117188 279.402344 139.523438 270.285156 121.390625 C 268.699219 115.957031 277.332031 113.027344 279.53125 118.109375 C 289.105469 133.738281 298.195312 149.703125 307.4375 165.539062 C 312.355469 173.296875 311.726562 185.34375 303.066406 190.167969 Z M 303.066406 190.167969 " fill-opacity="1" fill-rule="nonzero"/></svg>